#N canvas 300 100 800 500 12 ;
#N canvas 697 62 450 300 onoff 0;
#X msg 20 60  dsp 1;
#X obj 20 120 s pd;
#X connect 0 0 1 0;
#X restore 20 20 pd onoff;
#X obj 20 100 loadbang ;
#X msg 20 160  440;
#X floatatom 20 220 5 0 0 0 - - - 0;
#X text 220 140  additivesynth;
#X obj 20 280 osc~ ;
#X obj 80 280  * 2;
#X obj 140 280  * 3;
#X obj 200 280  * 4;
#X obj 260 280  * 5;
#X obj 20 520  *~ 0.1;
#X floatatom 80 340 5 0 0 0 - - - 0;
#X obj 80 400 osc~ ;
#X obj 80 460  *~ 0.75;
#X floatatom 140 340 5 0 0 0 - - - 0;
#X obj 140 400 osc~ ;
#X obj 140 460  *~ 0.5;
#X floatatom 200 340 5 0 0 0 - - - 0;
#X obj 200 400 osc~ ;
#X obj 200 460  *~ 0.35;
#X floatatom 260 340 5 0 0 0 - - - 0;
#X obj 260 400 osc~ ;
#X obj 260 460  *~ 0.25;
#X obj 20 560 dac~ ;
#X connect 1 0 2 0;
#X connect 2 0 3 0;
#X connect 3 0 5 0;
#X connect 3 0 6 0;
#X connect 3 0 7 0;
#X connect 3 0 8 0;
#X connect 3 0 9 0;
#X connect 5 0 10 0;
#X connect 6 0 11 0;
#X connect 11 0 12 0;
#X connect 12 0 13 0;
#X connect 7 0 14 0;
#X connect 14 0 15 0;
#X connect 15 0 16 0;
#X connect 8 0 17 0;
#X connect 17 0 18 0;
#X connect 18 0 19 0;
#X connect 9 0 20 0;
#X connect 20 0 21 0;
#X connect 21 0 22 0;
#X connect 13 0 10 0;
#X connect 16 0 10 0;
#X connect 19 0 10 0;
#X connect 22 0 10 0;
#X connect 10 0 23 0;
#X connect 10 0 23 1;
