#N canvas 300 100 800 500 12 ;
#X text 220 140  firstofall;
#N canvas 697 62 450 300 guerra 0;
#X msg 20 140  dsp 1;
#X obj 20 200 s pd;
#X connect 0 0 1 0;
#X restore 20 20 pd guerra;
#X msg 20 180  kanedaaaa;
#N canvas 697 62 450 300 war 0;
#X msg 20 180  dsp 1;
#X obj 20 240 s pd;
#X msg 20 220  dsp 0;
#X obj 20 280 s pd;
#X connect 0 0 1 0;
#X connect 2 0 3 0;
#X restore 220 20 pd war;
#X msg 20 300  tetsuoooooo;
#X floatatom 220 340 5 0 0 0 - - - 0;
#N canvas 697 62 450 300 krieg 0;
#X msg 20 340  dsp 1;
#X obj 20 400 s pd;
#X msg 20 380  dsp 0;
#X obj 20 440 s pd;
#X msg 220 460  elseifif;
#X connect 0 0 1 0;
#X connect 2 0 3 0;
#X restore 420 20 pd krieg;
#X obj 220 500 bang ;
#X obj 220 540 bang ;
#N canvas 697 62 450 300 altro1 0;
#X restore 620 20 pd altro1;
#N canvas 697 62 450 300 altro2 0;
#X restore 20 60 pd altro2;
#X connect 2 0 4 0;
