#N canvas 300 100 800 500 12 ;
#X msg 220 100  msgparams;
#X obj 220 140  600;
#X floatatom 220 180 5 0 0 0 - - - 0;
#X obj 20 180  400;
#X obj 20 180  *~ 432;
#X msg 220 280  ;
#X obj 20 220  1;
#X obj 220 260 dac~ ;
#N canvas 697 62 450 300 thisblock 0;
#X floatatom 220 300 5 0 0 0 - - - 0;
#X symbolatom 220 340  otherparameters;
#X obj 220 380  * 400;
#X obj 220 420  400;
#X restore 20 20 pd thisblock;
#X obj 220 520  9;
#X obj 20 460  10;
#X obj 20 460 osc~ 420;
#X obj 20 520 osc~ ;
#X obj 80 520 noise~ ;
#X obj 20 580 dac~ ;
#X connect 6 0 5 0;
#X connect 10 0 9 0;
#X connect 3 0 11 0;
#X connect 4 0 11 0;
#X connect 11 0 12 0;
#X connect 11 0 13 0;
#X connect 12 0 14 0;
#X connect 13 0 14 0;
