#N canvas 676 207 681 509 12 ;
#X msg 375 327  3 2 1;
#X obj 397 227  1;
#X obj 370 172  4 4 4 givenstring;
#X obj 80 0  5;
#X obj 40 0  *~ 420;
#X msg 227 397  hi;
#X obj 180 264  555;
#X msg 183 200  bye;
#X msg 169 415  6 6 6;
#X msg 393 406  byeee;
#X obj 115 242  888;
#X msg 478 209  imconnected;
#X msg 356 135  newnode;
#X obj 85 270  * 5;
#X obj 198 386  0;
#X obj 122 68  5;
#X obj 120 0  2;
#X obj 160 0  sayaseit;
#X msg 80 40  4;
#X obj 40 80  7;
#X msg 136 349  baggins;
#X obj 147 497  44 gatti;
#X obj 65 342 dac 1;
#X obj 452 467 osc~ 440;
#X connect 6 0 5 0;
#X connect 8 0 7 0;
#X connect 9 0 7 0;
#X connect 7 0 10 0;
#X connect 11 0 3 1;
#X connect 13 0 12 0;
#X connect 21 0 20 0;
#X connect 4 0 18 0;
#X connect 3 0 18 0;
#X connect 16 0 18 0;
#X connect 17 0 18 0;
#X connect 18 0 19 0;
