#N canvas 676 207 681 509 12 ;
#X msg 157 83  3 2 1;
#X obj 179 208  1;
#X obj 330 134  4 4 4 givenstring;
#X floatatom 80 0  5;
#X obj 40 0  *~ 420;
#X msg 38 482  hi;
#X floatatom 277 201  555;
#X msg 96 492  bye;
#X msg 289 329  6 6 6;
#X msg 331 213  byeee;
#X floatatom 337 132  888;
#X msg 108 324  imconnected;
#X msg 380 152  newnode;
#X obj 374 90  * 5;
#X floatatom 430 177  5;
#X obj 120 0  2;
#X obj 160 0  sayaseit;
#X msg 80 40  4;
#X floatatom 40 80  7;
#X msg 25 457  baggins;
#X obj 311 430  44 gatti;
#X obj 493 48 dac 1;
#X obj 164 229 osc~ 440;
#N canvas 697 62 450 300 something 0;
#X array 348 94  4 4 4;
#X obj 54 382 mtof ;
#X restore 69 69 pd something;
#X connect 6 0 5 0;
#X connect 8 0 7 0;
#X connect 9 0 7 0;
#X connect 7 0 10 0;
#X connect 11 0 3 1;
#X connect 13 0 12 0;
#X connect 20 0 19 0;
#X connect 4 0 17 0;
#X connect 3 0 17 0;
#X connect 15 0 17 0;
#X connect 16 0 17 0;
#X connect 17 0 18 0;
