#N canvas 676 207 681 509 12 ;
#X msg 40 40 3 2 1 ;
#X obj 80 80 1 ;
#X obj 120 120 4 4 4 'givenstring' ;
#X obj 160 160 5 ;
#X obj 200 200 * 8 ;
#X obj 240 240 * ;
#X msg 280 280 'hi' ;
#X obj 320 320 555 ;
#X msg 360 360 'bye' ;
#X msg 400 400 6 6 6 ;
#X obj 440 440 + ;
#X connect 6 0 7 0;
#X connect 8 0 9 0;
#X connect 8 0 10 0;
