#N canvas 676 207 681 509 12 ;
#X msg 40 40 3 2 1;
#X obj 40 40 1;
#X obj 40 40 4 4 4 givenstring;
#X obj 40 40 5;
#X obj 40 40 *~ 420;
#X msg 40 40 hi;
#X obj 40 40 555;
#X msg 40 40 bye;
#X msg 40 40 6 6 6;
#X msg 40 40 byeee;
#X obj 40 40 888;
#X msg 40 40 imconnected;
#X msg 40 40 newnode;
#X obj 40 40 * 5;
#X connect 6 0 5 0;
#X connect 8 0 7 0;
#X connect 9 0 7 0;
#X connect 7 0 10 0;
#X connect 11 0 3 0;
#X connect 13 0 12 0;
