#N canvas 676 207 681 509 12 ;
#N canvas 697 62 450 300 onoff 0;
#X msg None None  dsp 1;
#X obj None None s pd;
#X connect 0 0 1 0;
#X restore 69 69 pd onoff;
#X obj None None loadbang ;
#X msg 120 60  440;
#X floatatom 60 100 5 0 0 0 - - - 0;
#X text None None  additivesynth;
#X obj 140 140 osc~ ;
#X obj 180 140  * 2;
#X obj 220 140  * 3;
#X obj 260 140  * 4;
#X obj 300 140  * 5;
#X obj 0 820  *~ 0.1;
#X floatatom 140 220 5 0 0 0 - - - 0;
#X obj 60 260 osc~ ;
#X obj 60 300  *~ 0.75;
#X floatatom 140 340 5 0 0 0 - - - 0;
#X obj 60 380 osc~ ;
#X obj 60 420  *~ 0.5;
#X floatatom 140 460 5 0 0 0 - - - 0;
#X obj 60 500 osc~ ;
#X obj 60 540  *~ 0.35;
#X floatatom 140 580 5 0 0 0 - - - 0;
#X obj 60 620 osc~ ;
#X obj 60 660  *~ 0.25;
#X obj 0 900 dac~ ;
#X connect 1 0 2 0;
#X connect 2 0 3 0;
#X connect 3 0 5 0;
#X connect 3 0 6 0;
#X connect 3 0 7 0;
#X connect 3 0 8 0;
#X connect 3 0 9 0;
#X connect 5 0 10 0;
#X connect 6 0 11 0;
#X connect 11 0 12 0;
#X connect 12 0 13 0;
#X connect 7 0 14 0;
#X connect 14 0 15 0;
#X connect 15 0 16 0;
#X connect 8 0 17 0;
#X connect 17 0 18 0;
#X connect 18 0 19 0;
#X connect 9 0 20 0;
#X connect 20 0 21 0;
#X connect 21 0 22 0;
#X connect 13 0 10 0;
#X connect 16 0 10 0;
#X connect 19 0 10 0;
#X connect 22 0 10 0;
#X connect 10 0 23 0;
#X connect 10 0 23 1;
