#N canvas 676 207 681 509 12 ;
#X text None None  firstofall;
#N canvas 697 62 450 300 guerra 0;
#X msg None None  dsp 1;
#X obj None None s pd;
#X connect 0 0 1 0;
#X restore 69 69 pd guerra;
#X msg None None  kanedaaaa;
#N canvas 697 62 450 300 war 0;
#X msg None None  dsp 1;
#X obj 40 60 s pd;
#X msg None None  dsp 0;
#X obj 60 100 s pd;
#X connect 0 0 1 0;
#X connect 2 0 3 0;
#X restore 69 69 pd war;
#X msg 0 140  tetsuoooooo;
#X floatatom None None 5 0 0 0 - - - 0;
#X connect 2 0 4 0;
