#N canvas 688 19 681 716 12;
#X obj 216 522 dac~ ;
#X msg 216 18  432 ;
#X floatatom 216 90  5 0 0 0 - - - 0 ;
#X obj 36 306 osc~ ;
#X obj 216 450  *~ 0.25 ;
#X obj 126 162  * 3 ;
#X floatatom 126 234  5 0 0 0 - - - 0 ;
#X obj 126 306 osc~ ;
#X obj 126 378  *~ 0.85 ;
#X obj 216 162  * 5 ;
#X floatatom 216 234  5 0 0 0 - - - 0 ;
#X obj 216 306 osc~ ;
#X obj 216 378  *~ 0.5 ;
#X obj 306 162  * 7 ;
#X floatatom 306 234  5 0 0 0 - - - 0 ;
#X obj 306 306 osc~ ;
#X obj 306 378  *~ 0.35 ;
#X obj 396 162  * 9 ;
#X floatatom 396 234  5 0 0 0 - - - 0 ;
#X obj 396 306 osc~ ;
#X obj 396 378  *~ 0.25 ;
#X connect 1 0 2 0;
#X connect 2 0 3 0;
#X connect 3 0 4 0;
#X connect 4 0 0 0;
#X connect 4 0 0 1;
#X connect 2 0 5 0;
#X connect 5 0 6 0;
#X connect 6 0 7 0;
#X connect 7 0 8 0;
#X connect 8 0 4 0;
#X connect 2 0 9 0;
#X connect 9 0 10 0;
#X connect 10 0 11 0;
#X connect 11 0 12 0;
#X connect 12 0 4 0;
#X connect 2 0 13 0;
#X connect 13 0 14 0;
#X connect 14 0 15 0;
#X connect 15 0 16 0;
#X connect 16 0 4 0;
#X connect 2 0 17 0;
#X connect 17 0 18 0;
#X connect 18 0 19 0;
#X connect 19 0 20 0;
#X connect 20 0 4 0;
