#N canvas 688 19 681 716 12;
#N canvas 72 90  additivesynth0 0 ;
#X obj 216 18 inlet ;
#X msg 216 90  432 ;
#X floatatom 216 162  5 0 0 0 - - - 0 ;
#X obj 36 378 osc~ ;
#X obj 216 522  *~ 0.25 ;
#X obj 216 594 outlet~ ;
#X obj 126 234  * 3 ;
#X floatatom 126 306  5 0 0 0 - - - 0 ;
#X obj 126 378 osc~ ;
#X obj 126 450  *~ 0.85 ;
#X obj 216 234  * 5 ;
#X floatatom 216 306  5 0 0 0 - - - 0 ;
#X obj 216 378 osc~ ;
#X obj 216 450  *~ 0.5 ;
#X obj 306 234  * 7 ;
#X floatatom 306 306  5 0 0 0 - - - 0 ;
#X obj 306 378 osc~ ;
#X obj 306 450  *~ 0.35 ;
#X obj 396 234  * 9 ;
#X floatatom 396 306  5 0 0 0 - - - 0 ;
#X obj 396 378 osc~ ;
#X obj 396 450  *~ 0.25 ;
#X connect 0 0 1 0;
#X connect 1 0 2 0;
#X connect 2 0 3 0;
#X connect 3 0 4 0;
#X connect 4 0 5 0;
#X connect 2 0 6 0;
#X connect 6 0 7 0;
#X connect 7 0 8 0;
#X connect 8 0 9 0;
#X connect 9 0 4 0;
#X connect 2 0 10 0;
#X connect 10 0 11 0;
#X connect 11 0 12 0;
#X connect 12 0 13 0;
#X connect 13 0 4 0;
#X connect 2 0 14 0;
#X connect 14 0 15 0;
#X connect 15 0 16 0;
#X connect 16 0 17 0;
#X connect 17 0 4 0;
#X connect 2 0 18 0;
#X connect 18 0 19 0;
#X connect 19 0 20 0;
#X connect 20 0 21 0;
#X connect 21 0 4 0;
#X restore 72 90  pd additivesynth0 ;
#N canvas 198 90  adsr0 0 ;
#X obj 126 378 line~ ;
#X obj 36 234 inlet ;
#X msg 49 306  1 1000 ;
#X obj 171 18 inlet ;
#X obj 171 90 delay 1000 ;
#X obj 171 162 bng 19 250 50 0 empty empty empty 0 -10 0 12 #fcfcfc #000000 #000000 ;
#X msg 126 234  0.5 1500 ;
#X obj 216 234 delay 3000 ;
#X msg 203 306  0 1000 ;
#X obj 126 450 outlet~ ;
#X connect 1 0 2 0;
#X connect 2 0 0 0;
#X connect 3 0 4 0;
#X connect 4 0 5 0;
#X connect 5 0 6 0;
#X connect 5 0 7 0;
#X connect 7 0 8 0;
#X connect 8 0 0 0;
#X connect 6 0 0 0;
#X connect 0 0 9 0;
#X restore 198 90  pd adsr0 ;
#X obj 198 18 bng 19 250 50 0 empty empty empty 0 -10 0 12 #fcfcfc #000000 #000000 ;
#X obj 135 162  *~ ;
#X obj 135 234 dac~ ;
#X connect 2 0 0 0;
#X connect 2 0 1 0;
#X connect 2 0 1 1;
#X connect 0 0 3 0;
#X connect 3 0 4 0;
#X connect 1 0 3 1;
#X connect 3 0 4 1;
