#N canvas 688 19 681 716 12;
#N canvas 168 137  additivesynth0 0 ;
#X obj 137 137 inlet ;
#X msg 200 82  440 ;
#X floatatom 71 108  5 0 0 0 - - - 0 ;
#X obj 184 178 osc~ ;
#X obj 81 34  *~ 0.25 ;
#X obj 81 87 outlet~ ;
#X obj 104 164  * 3 ;
#X floatatom 64 177  5 0 0 0 - - - 0 ;
#X obj 120 47 osc~ ;
#X obj 140 91  * 0.75 ;
#X obj 61 167  * 5 ;
#X floatatom 37 87  5 0 0 0 - - - 0 ;
#X obj 192 81 osc~ ;
#X obj 137 54  * 0.55 ;
#X obj 92 107  * 7 ;
#X floatatom 90 101  5 0 0 0 - - - 0 ;
#X obj 181 27 osc~ ;
#X obj 139 140  * 0.35 ;
#X connect 0 0 1 0;
#X connect 1 0 2 0;
#X connect 2 0 3 0;
#X connect 3 0 4 0;
#X connect 4 0 5 0;
#X connect 2 0 6 0;
#X connect 6 0 7 0;
#X connect 7 0 8 0;
#X connect 8 0 9 0;
#X connect 9 0 4 0;
#X connect 2 0 10 0;
#X connect 10 0 11 0;
#X connect 11 0 12 0;
#X connect 12 0 13 0;
#X connect 13 0 4 0;
#X connect 2 0 14 0;
#X connect 14 0 15 0;
#X connect 15 0 16 0;
#X connect 16 0 17 0;
#X connect 17 0 4 0;
#X restore 200 193  pd additivesynth0 ;
#N canvas 169 53  adsr0 0 ;
#X obj 199 122 line~ ;
#X obj 108 57 inlet ;
#X msg 164 131  1 1000 ;
#X obj 174 160 inlet ;
#X obj 152 36 delay 1000 ;
#X obj 131 33 bng 19 250 50 0 empty empty empty 0 -10 0 12 #fcfcfc #000000 #000000 ;
#X msg 64 193  0.5 1500 ;
#X obj 184 54 delay 3000 ;
#X msg 171 150  0 1000 ;
#X obj 128 22 outlet~ ;
#X connect 1 0 2 0;
#X connect 2 0 0 0;
#X connect 3 0 4 0;
#X connect 4 0 5 0;
#X connect 5 0 6 0;
#X connect 5 0 7 0;
#X connect 7 0 8 0;
#X connect 8 0 0 0;
#X connect 6 0 0 0;
#X connect 0 0 9 0;
#X restore 165 163  pd adsr0 ;
#X obj 154 93 bng 19 250 50 0 empty empty empty 0 -10 0 12 #fcfcfc #000000 #000000 ;
#X obj 25 147  *~ ;
#X obj 172 154 output~ ;
#X connect 2 0 0 0;
#X connect 2 0 1 0;
#X connect 2 0 1 1;
#X connect 0 0 3 0;
#X connect 3 0 4 0;
#X connect 1 0 3 1;
#X connect 3 0 4 1;
