#N canvas 688 19 681 716 12;
#X obj 121 196 bng 19 250 50 0 empty empty empty 0 -10 0 12 #fcfcfc #000000 #000000 ;
#X obj 134 116  * 10 ;
#N canvas 170 37  other0 0 ;
#X restore 34 140  pd other0 ;
#X obj 180 179 dac~ 100 1 ;
#X obj 29 128 bng 19 250 50 0 empty empty empty 0 -10 0 12 #fcfcfc #000000 #000000 ;
#N canvas 67 130  prova0 0 ;
#X obj 107 69 osc~ ;
#X obj 121 102 bng 19 250 50 0 empty empty empty 0 -10 0 12 #fcfcfc #000000 #000000 ;
#X obj 73 69 bng 19 250 50 0 empty empty empty 0 -10 0 12 #fcfcfc #000000 #000000 ;
#X obj 28 87 osc~ 400 ;
#X connect 1 0 2 0;
#X connect 0 0 3 0;
#X connect 2 0 0 0;
#X restore 196 196  pd prova0 ;
#X obj 182 136 osc~ 400 ;
#N canvas 48 114  prova1 0 ;
#X obj 111 36 osc~ ;
#X obj 172 40 bng 19 250 50 0 empty empty empty 0 -10 0 12 #fcfcfc #000000 #000000 ;
#X obj 64 65 bng 19 250 50 0 empty empty empty 0 -10 0 12 #fcfcfc #000000 #000000 ;
#X obj 134 121 osc~ 400 ;
#X connect 1 0 2 0;
#X connect 0 0 3 0;
#X connect 2 0 0 0;
#X restore 148 72  pd prova1 ;
#N canvas 38 73  prova2 0 ;
#X obj 56 36 osc~ ;
#X obj 158 83 bng 19 250 50 0 empty empty empty 0 -10 0 12 #fcfcfc #000000 #000000 ;
#X obj 60 56 bng 19 250 50 0 empty empty empty 0 -10 0 12 #fcfcfc #000000 #000000 ;
#X obj 141 103 osc~ 400 ;
#X connect 1 0 2 0;
#X connect 0 0 3 0;
#X connect 2 0 0 0;
#X restore 105 91  pd prova2 ;
#N canvas 131 87  prova3 0 ;
#X obj 117 193 osc~ ;
#X obj 63 75 bng 19 250 50 0 empty empty empty 0 -10 0 12 #fcfcfc #000000 #000000 ;
#X obj 129 70 bng 19 250 50 0 empty empty empty 0 -10 0 12 #fcfcfc #000000 #000000 ;
#X obj 61 151 osc~ 400 ;
#X connect 1 0 2 0;
#X connect 0 0 3 0;
#X connect 2 0 0 0;
#X restore 71 175  pd prova3 ;
#X connect 0 2 1 1;
#X connect 0 2 3 0;
#X connect 1 2 4 0;
#X connect 3 0 4 0;
#X connect 3 0 6 0;
#X connect 0 0 3 0;
