#N canvas 688 19 681 716 12;
#X obj 126 306 tgl 19 0 empty empty empty 0 -10 0 12 #fcfcfc #000000 #000000 0 1 ;
#N canvas 126 378  onoff0 0 ;
#X obj 126 18 inlet ;
#X obj 126 90 s ON ;
#X connect 0 0 1 0;
#X restore 126 378  pd onoff0 ;
#N canvas 396 378  bpm0 0 ;
#X obj 126 306  / ;
#X obj 126 234  t b f ;
#X obj 126 18 loadbang ;
#X msg 126 90  60 ;
#X floatatom 126 162  5 0 0 0 - - - 0 ;
#X obj 198 162 loadbang ;
#X msg 198 234  60000 ;
#X floatatom 126 378  5 0 0 0 - - - 0 ;
#X obj 126 450 s 4th_time ;
#X connect 2 0 3 0;
#X connect 3 0 4 0;
#X connect 4 0 1 0;
#X connect 1 1 0 1;
#X connect 1 0 0 0;
#X connect 5 0 6 0;
#X connect 6 0 0 0;
#X connect 0 0 7 0;
#X connect 7 0 8 0;
#X restore 396 378  pd bpm0 ;
#N canvas 562 18  loneclock0 0 ;
#X obj 309 234 metro ;
#X obj 396 18 receive 4th_time ;
#X obj 389 90  / 1.0 ;
#X floatatom 367 162  5 0 0 0 - - - 0 ;
#X obj 126 18 r ON ;
#X obj 170 90 tgl 19 0 empty empty empty 0 -10 0 12 #fcfcfc #000000 #000000 0 1 ;
#X obj 170 162 sel 0 ;
#X obj 242 162 loadbang ;
#X obj 237 234 bng 19 250 50 0 empty empty empty 0 -10 0 12 #fcfcfc #000000 #000000 ;
#X msg 237 306  -1 ;
#X obj 345 378 int 1 ;
#X obj 309 306 bng 19 250 50 0 empty empty empty 0 -10 0 12 #fcfcfc #000000 #000000 ;
#X floatatom 345 450  5 0 0 0 - - - 0 ;
#X obj 345 522  % 4 ;
#X obj 345 594  + 1 ;
#X floatatom 345 666  5 0 0 0 - - - 0 ;
#X obj 345 738 outlet ;
#X obj 381 306  + 1 ;
#X connect 1 0 2 0;
#X connect 2 0 3 0;
#X connect 3 0 0 1;
#X connect 4 0 5 0;
#X connect 5 0 0 0;
#X connect 5 0 6 0;
#X connect 7 0 8 0;
#X connect 6 0 8 0;
#X connect 8 0 9 0;
#X connect 9 0 10 0;
#X connect 0 0 11 0;
#X connect 11 0 10 0;
#X connect 10 0 12 0;
#X connect 12 0 13 0;
#X connect 13 0 14 0;
#X connect 14 0 15 0;
#X connect 15 0 16 0;
#X connect 10 0 17 0;
#X connect 17 0 10 1;
#X restore 562 18  pd loneclock0 ;
#N canvas 562 90  scales0 0 ;
#X floatatom 243 234  5 0 0 0 - - - 0 ;
#X floatatom 243 450  5 0 0 0 - - - 0 ;
#X obj 243 18 inlet ;
#X obj 243 90 bng 19 250 50 0 empty empty empty 0 -10 0 12 #fcfcfc #000000 #000000 ;
#X obj 243 162 random 7 ;
#X obj 27 306 sel 0 ;
#X msg 27 378  62 ;
#X obj 99 306 sel 1 ;
#X msg 99 378  63 ;
#X obj 171 306 sel 2 ;
#X msg 171 378  65 ;
#X obj 243 306 sel 3 ;
#X msg 243 378  67 ;
#X obj 315 306 sel 4 ;
#X msg 315 378  68 ;
#X obj 387 306 sel 5 ;
#X msg 387 378  70 ;
#X obj 459 306 sel 6 ;
#X msg 459 378  72 ;
#X obj 243 522 mtof ;
#X obj 243 594 outlet ;
#X connect 2 0 3 0;
#X connect 3 0 4 0;
#X connect 4 0 0 0;
#X connect 0 0 5 0;
#X connect 5 0 6 0;
#X connect 6 0 1 0;
#X connect 0 0 7 0;
#X connect 7 0 8 0;
#X connect 8 0 1 0;
#X connect 0 0 9 0;
#X connect 9 0 10 0;
#X connect 10 0 1 0;
#X connect 0 0 11 0;
#X connect 11 0 12 0;
#X connect 12 0 1 0;
#X connect 0 0 13 0;
#X connect 13 0 14 0;
#X connect 14 0 1 0;
#X connect 0 0 15 0;
#X connect 15 0 16 0;
#X connect 16 0 1 0;
#X connect 0 0 17 0;
#X connect 17 0 18 0;
#X connect 18 0 1 0;
#X connect 1 0 19 0;
#X connect 19 0 20 0;
#X restore 562 90  pd scales0 ;
#N canvas 477 162  additivesynth0 0 ;
#X obj 171 18 inlet ;
#X floatatom 171 90  5 0 0 0 - - - 0 ;
#X obj 27 306 osc~ ;
#X obj 171 450  *~ 0.25 ;
#X obj 171 522 outlet~ ;
#X obj 99 162  * 3 ;
#X floatatom 99 234  5 0 0 0 - - - 0 ;
#X obj 99 306 osc~ ;
#X obj 99 378  *~ 0.85 ;
#X obj 171 162  * 5 ;
#X floatatom 171 234  5 0 0 0 - - - 0 ;
#X obj 171 306 osc~ ;
#X obj 171 378  *~ 0.5 ;
#X obj 243 162  * 7 ;
#X floatatom 243 234  5 0 0 0 - - - 0 ;
#X obj 243 306 osc~ ;
#X obj 243 378  *~ 0.35 ;
#X obj 315 162  * 9 ;
#X floatatom 315 234  5 0 0 0 - - - 0 ;
#X obj 315 306 osc~ ;
#X obj 315 378  *~ 0.25 ;
#X connect 0 0 1 0;
#X connect 1 0 2 0;
#X connect 2 0 3 0;
#X connect 3 0 4 0;
#X connect 1 0 5 0;
#X connect 5 0 6 0;
#X connect 6 0 7 0;
#X connect 7 0 8 0;
#X connect 8 0 3 0;
#X connect 1 0 9 0;
#X connect 9 0 10 0;
#X connect 10 0 11 0;
#X connect 11 0 12 0;
#X connect 12 0 3 0;
#X connect 1 0 13 0;
#X connect 13 0 14 0;
#X connect 14 0 15 0;
#X connect 15 0 16 0;
#X connect 16 0 3 0;
#X connect 1 0 17 0;
#X connect 17 0 18 0;
#X connect 18 0 19 0;
#X connect 19 0 20 0;
#X connect 20 0 3 0;
#X restore 477 162  pd additivesynth0 ;
#N canvas 648 234  adsr0 0 ;
#X obj 99 378 line~ ;
#X obj 27 234 inlet ;
#X msg 36 306  1 1000 ;
#X obj 135 18 inlet ;
#X obj 135 90 delay 1000 ;
#X obj 135 162 bng 19 250 50 0 empty empty empty 0 -10 0 12 #fcfcfc #000000 #000000 ;
#X msg 99 234  0.5 1500 ;
#X obj 171 234 delay 3000 ;
#X msg 162 306  0 1000 ;
#X obj 99 450 outlet~ ;
#X connect 1 0 2 0;
#X connect 2 0 0 0;
#X connect 3 0 4 0;
#X connect 4 0 5 0;
#X connect 5 0 6 0;
#X connect 5 0 7 0;
#X connect 7 0 8 0;
#X connect 8 0 0 0;
#X connect 6 0 0 0;
#X connect 0 0 9 0;
#X restore 648 234  pd adsr0 ;
#X obj 648 162 bng 19 250 50 0 empty empty empty 0 -10 0 12 #fcfcfc #000000 #000000 ;
#X obj 567 378 dac~ ;
#X obj 567 306  *~ ;
#X connect 0 0 1 0;
#X connect 3 0 4 0;
#X connect 4 0 5 0;
#X connect 4 0 7 0;
#X connect 7 0 6 0;
#X connect 7 0 6 1;
#X connect 5 0 9 0;
#X connect 6 0 9 1;
#X connect 9 0 8 0;
#X connect 9 0 8 1;
