#N canvas 688 19 681 716 12;
#X obj 36 18 tgl 19 0 empty empty empty 0 -10 0 12 #fcfcfc #000000 #000000 0 1 ;
#N canvas 36 90  onoff0 0 ;
#X obj 36 18 inlet ;
#X obj 36 90 s ON ;
#X connect 0 0 1 0;
#X restore 36 90  pd onoff0 ;
#N canvas 126 90  bpm0 0 ;
#X obj 36 306  / ;
#X obj 36 234  t b f ;
#X obj 36 18 loadbang ;
#X msg 36 90  140 ;
#X floatatom 36 162  5 0 0 0 - - - 0 ;
#X obj 126 162 loadbang ;
#X msg 126 234  60000 ;
#X floatatom 36 378  5 0 0 0 - - - 0 ;
#X obj 36 450 s 4th_time ;
#X connect 2 0 3 0;
#X connect 3 0 4 0;
#X connect 4 0 1 0;
#X connect 1 1 0 1;
#X connect 1 0 0 0;
#X connect 5 0 6 0;
#X connect 6 0 0 0;
#X connect 0 0 7 0;
#X connect 7 0 8 0;
#X restore 126 90  pd bpm0 ;
#N canvas 216 90  drums0 0 ;
#X obj 1341 306 bng 19 250 50 0 empty empty empty 0 -10 0 12 #fcfcfc #000000 #000000 ;
#N canvas 1431 234  read0 0 ;
#X obj 108 18 inlet ;
#X msg 108 90  open ../samples/kick.wav \, 1 ;
#X obj 108 162 readsf~ ;
#X obj 108 234 outlet~ ;
#X connect 0 0 1 0;
#X connect 1 0 2 0;
#X connect 2 0 3 0;
#X restore 1431 234  pd read0 ;
#X obj 36 18 inlet ;
#X obj 36 90 bng 19 250 50 0 empty empty empty 0 -10 0 12 #fcfcfc #000000 #000000 ;
#X obj 126 162 spigot ;
#X obj 126 90 tgl 19 0 empty empty empty 0 -10 0 12 #fcfcfc #000000 #000000 0 1 ;
#X obj 216 18 inlet ;
#X obj 216 90 bng 19 250 50 0 empty empty empty 0 -10 0 12 #fcfcfc #000000 #000000 ;
#X obj 306 162 spigot ;
#X obj 306 90 tgl 19 0 empty empty empty 0 -10 0 12 #fcfcfc #000000 #000000 0 1 ;
#X obj 396 18 inlet ;
#X obj 396 90 bng 19 250 50 0 empty empty empty 0 -10 0 12 #fcfcfc #000000 #000000 ;
#X obj 486 162 spigot ;
#X obj 486 90 tgl 19 0 empty empty empty 0 -10 0 12 #fcfcfc #000000 #000000 0 1 ;
#X obj 576 18 inlet ;
#X obj 576 90 bng 19 250 50 0 empty empty empty 0 -10 0 12 #fcfcfc #000000 #000000 ;
#X obj 666 162 spigot ;
#X obj 666 18 loadbang ;
#X obj 666 90 tgl 19 0 empty empty empty 0 -10 0 12 #fcfcfc #000000 #000000 0 1 ;
#X obj 756 18 inlet ;
#X obj 756 90 bng 19 250 50 0 empty empty empty 0 -10 0 12 #fcfcfc #000000 #000000 ;
#X obj 846 162 spigot ;
#X obj 846 90 tgl 19 0 empty empty empty 0 -10 0 12 #fcfcfc #000000 #000000 0 1 ;
#X obj 936 18 inlet ;
#X obj 936 90 bng 19 250 50 0 empty empty empty 0 -10 0 12 #fcfcfc #000000 #000000 ;
#X obj 1026 162 spigot ;
#X obj 1026 90 tgl 19 0 empty empty empty 0 -10 0 12 #fcfcfc #000000 #000000 0 1 ;
#X obj 1116 18 inlet ;
#X obj 1116 90 bng 19 250 50 0 empty empty empty 0 -10 0 12 #fcfcfc #000000 #000000 ;
#X obj 1206 162 spigot ;
#X obj 1206 90 tgl 19 0 empty empty empty 0 -10 0 12 #fcfcfc #000000 #000000 0 1 ;
#X obj 1296 18 inlet ;
#X obj 1296 90 bng 19 250 50 0 empty empty empty 0 -10 0 12 #fcfcfc #000000 #000000 ;
#X obj 1386 162 spigot ;
#X obj 1386 18 loadbang ;
#X obj 1386 90 tgl 19 0 empty empty empty 0 -10 0 12 #fcfcfc #000000 #000000 0 1 ;
#X obj 1476 18 inlet ;
#X obj 1476 90 bng 19 250 50 0 empty empty empty 0 -10 0 12 #fcfcfc #000000 #000000 ;
#X obj 1476 162 spigot ;
#X obj 1566 90 tgl 19 0 empty empty empty 0 -10 0 12 #fcfcfc #000000 #000000 0 1 ;
#X obj 1656 18 inlet ;
#X obj 1656 90 bng 19 250 50 0 empty empty empty 0 -10 0 12 #fcfcfc #000000 #000000 ;
#X obj 1656 162 spigot ;
#X obj 1746 90 tgl 19 0 empty empty empty 0 -10 0 12 #fcfcfc #000000 #000000 0 1 ;
#X obj 1836 18 inlet ;
#X obj 1836 90 bng 19 250 50 0 empty empty empty 0 -10 0 12 #fcfcfc #000000 #000000 ;
#X obj 1836 162 spigot ;
#X obj 1926 90 tgl 19 0 empty empty empty 0 -10 0 12 #fcfcfc #000000 #000000 0 1 ;
#X obj 2016 18 inlet ;
#X obj 2016 90 bng 19 250 50 0 empty empty empty 0 -10 0 12 #fcfcfc #000000 #000000 ;
#X obj 2016 162 spigot ;
#X obj 2106 18 loadbang ;
#X obj 2106 90 tgl 19 0 empty empty empty 0 -10 0 12 #fcfcfc #000000 #000000 0 1 ;
#X obj 2196 18 inlet ;
#X obj 2196 90 bng 19 250 50 0 empty empty empty 0 -10 0 12 #fcfcfc #000000 #000000 ;
#X obj 2196 162 spigot ;
#X obj 2286 90 tgl 19 0 empty empty empty 0 -10 0 12 #fcfcfc #000000 #000000 0 1 ;
#X obj 2376 18 inlet ;
#X obj 2376 90 bng 19 250 50 0 empty empty empty 0 -10 0 12 #fcfcfc #000000 #000000 ;
#X obj 2376 162 spigot ;
#X obj 2466 90 tgl 19 0 empty empty empty 0 -10 0 12 #fcfcfc #000000 #000000 0 1 ;
#X obj 2556 18 inlet ;
#X obj 2556 90 bng 19 250 50 0 empty empty empty 0 -10 0 12 #fcfcfc #000000 #000000 ;
#X obj 2556 162 spigot ;
#X obj 2646 90 tgl 19 0 empty empty empty 0 -10 0 12 #fcfcfc #000000 #000000 0 1 ;
#X obj 2736 18 inlet ;
#X obj 2736 90 bng 19 250 50 0 empty empty empty 0 -10 0 12 #fcfcfc #000000 #000000 ;
#X obj 2736 162 spigot ;
#X obj 2826 18 loadbang ;
#X obj 2826 90 tgl 19 0 empty empty empty 0 -10 0 12 #fcfcfc #000000 #000000 0 1 ;
#X obj 1431 306 send~ kick ;
#X connect 2 0 3 0;
#X connect 3 0 4 0;
#X connect 4 0 1 0;
#X connect 5 0 4 1;
#X connect 6 0 7 0;
#X connect 7 0 8 0;
#X connect 8 0 1 0;
#X connect 9 0 8 1;
#X connect 10 0 11 0;
#X connect 11 0 12 0;
#X connect 12 0 1 0;
#X connect 13 0 12 1;
#X connect 14 0 15 0;
#X connect 15 0 16 0;
#X connect 16 0 1 0;
#X connect 17 0 18 0;
#X connect 18 0 16 1;
#X connect 19 0 20 0;
#X connect 20 0 21 0;
#X connect 21 0 1 0;
#X connect 22 0 21 1;
#X connect 23 0 24 0;
#X connect 24 0 25 0;
#X connect 25 0 1 0;
#X connect 26 0 25 1;
#X connect 27 0 28 0;
#X connect 28 0 29 0;
#X connect 29 0 1 0;
#X connect 30 0 29 1;
#X connect 31 0 32 0;
#X connect 32 0 33 0;
#X connect 33 0 1 0;
#X connect 34 0 35 0;
#X connect 35 0 33 1;
#X connect 36 0 37 0;
#X connect 37 0 38 0;
#X connect 38 0 1 0;
#X connect 39 0 38 1;
#X connect 40 0 41 0;
#X connect 41 0 42 0;
#X connect 42 0 1 0;
#X connect 43 0 42 1;
#X connect 44 0 45 0;
#X connect 45 0 46 0;
#X connect 46 0 1 0;
#X connect 47 0 46 1;
#X connect 48 0 49 0;
#X connect 49 0 50 0;
#X connect 50 0 1 0;
#X connect 51 0 52 0;
#X connect 52 0 50 1;
#X connect 53 0 54 0;
#X connect 54 0 55 0;
#X connect 55 0 1 0;
#X connect 56 0 55 1;
#X connect 57 0 58 0;
#X connect 58 0 59 0;
#X connect 59 0 1 0;
#X connect 60 0 59 1;
#X connect 61 0 62 0;
#X connect 62 0 63 0;
#X connect 63 0 1 0;
#X connect 64 0 63 1;
#X connect 65 0 66 0;
#X connect 66 0 67 0;
#X connect 67 0 1 0;
#X connect 68 0 69 0;
#X connect 69 0 67 1;
#X connect 1 0 70 0;
#X restore 216 90  pd drums0 ;
#N canvas 306 90  drums1 0 ;
#X obj 1341 306 bng 19 250 50 0 empty empty empty 0 -10 0 12 #fcfcfc #000000 #000000 ;
#N canvas 1431 234  read1 0 ;
#X obj 108 18 inlet ;
#X msg 108 90  open ../samples/clhat.wav \, 1 ;
#X obj 108 162 readsf~ ;
#X obj 108 234 outlet~ ;
#X connect 0 0 1 0;
#X connect 1 0 2 0;
#X connect 2 0 3 0;
#X restore 1431 234  pd read1 ;
#X obj 36 18 inlet ;
#X obj 36 90 bng 19 250 50 0 empty empty empty 0 -10 0 12 #fcfcfc #000000 #000000 ;
#X obj 126 162 spigot ;
#X obj 126 90 tgl 19 0 empty empty empty 0 -10 0 12 #fcfcfc #000000 #000000 0 1 ;
#X obj 216 18 inlet ;
#X obj 216 90 bng 19 250 50 0 empty empty empty 0 -10 0 12 #fcfcfc #000000 #000000 ;
#X obj 306 162 spigot ;
#X obj 306 90 tgl 19 0 empty empty empty 0 -10 0 12 #fcfcfc #000000 #000000 0 1 ;
#X obj 396 18 inlet ;
#X obj 396 90 bng 19 250 50 0 empty empty empty 0 -10 0 12 #fcfcfc #000000 #000000 ;
#X obj 486 162 spigot ;
#X obj 486 90 tgl 19 0 empty empty empty 0 -10 0 12 #fcfcfc #000000 #000000 0 1 ;
#X obj 576 18 inlet ;
#X obj 576 90 bng 19 250 50 0 empty empty empty 0 -10 0 12 #fcfcfc #000000 #000000 ;
#X obj 666 162 spigot ;
#X obj 666 90 tgl 19 0 empty empty empty 0 -10 0 12 #fcfcfc #000000 #000000 0 1 ;
#X obj 756 18 inlet ;
#X obj 756 90 bng 19 250 50 0 empty empty empty 0 -10 0 12 #fcfcfc #000000 #000000 ;
#X obj 846 162 spigot ;
#X obj 846 18 loadbang ;
#X obj 846 90 tgl 19 0 empty empty empty 0 -10 0 12 #fcfcfc #000000 #000000 0 1 ;
#X obj 936 18 inlet ;
#X obj 936 90 bng 19 250 50 0 empty empty empty 0 -10 0 12 #fcfcfc #000000 #000000 ;
#X obj 1026 162 spigot ;
#X obj 1026 18 loadbang ;
#X obj 1026 90 tgl 19 0 empty empty empty 0 -10 0 12 #fcfcfc #000000 #000000 0 1 ;
#X obj 1116 18 inlet ;
#X obj 1116 90 bng 19 250 50 0 empty empty empty 0 -10 0 12 #fcfcfc #000000 #000000 ;
#X obj 1206 162 spigot ;
#X obj 1206 18 loadbang ;
#X obj 1206 90 tgl 19 0 empty empty empty 0 -10 0 12 #fcfcfc #000000 #000000 0 1 ;
#X obj 1296 18 inlet ;
#X obj 1296 90 bng 19 250 50 0 empty empty empty 0 -10 0 12 #fcfcfc #000000 #000000 ;
#X obj 1386 162 spigot ;
#X obj 1386 18 loadbang ;
#X obj 1386 90 tgl 19 0 empty empty empty 0 -10 0 12 #fcfcfc #000000 #000000 0 1 ;
#X obj 1476 18 inlet ;
#X obj 1476 90 bng 19 250 50 0 empty empty empty 0 -10 0 12 #fcfcfc #000000 #000000 ;
#X obj 1476 162 spigot ;
#X obj 1566 90 tgl 19 0 empty empty empty 0 -10 0 12 #fcfcfc #000000 #000000 0 1 ;
#X obj 1656 18 inlet ;
#X obj 1656 90 bng 19 250 50 0 empty empty empty 0 -10 0 12 #fcfcfc #000000 #000000 ;
#X obj 1656 162 spigot ;
#X obj 1746 90 tgl 19 0 empty empty empty 0 -10 0 12 #fcfcfc #000000 #000000 0 1 ;
#X obj 1836 18 inlet ;
#X obj 1836 90 bng 19 250 50 0 empty empty empty 0 -10 0 12 #fcfcfc #000000 #000000 ;
#X obj 1836 162 spigot ;
#X obj 1926 90 tgl 19 0 empty empty empty 0 -10 0 12 #fcfcfc #000000 #000000 0 1 ;
#X obj 2016 18 inlet ;
#X obj 2016 90 bng 19 250 50 0 empty empty empty 0 -10 0 12 #fcfcfc #000000 #000000 ;
#X obj 2016 162 spigot ;
#X obj 2106 90 tgl 19 0 empty empty empty 0 -10 0 12 #fcfcfc #000000 #000000 0 1 ;
#X obj 2196 18 inlet ;
#X obj 2196 90 bng 19 250 50 0 empty empty empty 0 -10 0 12 #fcfcfc #000000 #000000 ;
#X obj 2196 162 spigot ;
#X obj 2286 18 loadbang ;
#X obj 2286 90 tgl 19 0 empty empty empty 0 -10 0 12 #fcfcfc #000000 #000000 0 1 ;
#X obj 2376 18 inlet ;
#X obj 2376 90 bng 19 250 50 0 empty empty empty 0 -10 0 12 #fcfcfc #000000 #000000 ;
#X obj 2376 162 spigot ;
#X obj 2466 18 loadbang ;
#X obj 2466 90 tgl 19 0 empty empty empty 0 -10 0 12 #fcfcfc #000000 #000000 0 1 ;
#X obj 2556 18 inlet ;
#X obj 2556 90 bng 19 250 50 0 empty empty empty 0 -10 0 12 #fcfcfc #000000 #000000 ;
#X obj 2556 162 spigot ;
#X obj 2646 18 loadbang ;
#X obj 2646 90 tgl 19 0 empty empty empty 0 -10 0 12 #fcfcfc #000000 #000000 0 1 ;
#X obj 2736 18 inlet ;
#X obj 2736 90 bng 19 250 50 0 empty empty empty 0 -10 0 12 #fcfcfc #000000 #000000 ;
#X obj 2736 162 spigot ;
#X obj 2826 18 loadbang ;
#X obj 2826 90 tgl 19 0 empty empty empty 0 -10 0 12 #fcfcfc #000000 #000000 0 1 ;
#X obj 1431 306 send~ hat ;
#X connect 2 0 3 0;
#X connect 3 0 4 0;
#X connect 4 0 1 0;
#X connect 5 0 4 1;
#X connect 6 0 7 0;
#X connect 7 0 8 0;
#X connect 8 0 1 0;
#X connect 9 0 8 1;
#X connect 10 0 11 0;
#X connect 11 0 12 0;
#X connect 12 0 1 0;
#X connect 13 0 12 1;
#X connect 14 0 15 0;
#X connect 15 0 16 0;
#X connect 16 0 1 0;
#X connect 17 0 16 1;
#X connect 18 0 19 0;
#X connect 19 0 20 0;
#X connect 20 0 1 0;
#X connect 21 0 22 0;
#X connect 22 0 20 1;
#X connect 23 0 24 0;
#X connect 24 0 25 0;
#X connect 25 0 1 0;
#X connect 26 0 27 0;
#X connect 27 0 25 1;
#X connect 28 0 29 0;
#X connect 29 0 30 0;
#X connect 30 0 1 0;
#X connect 31 0 32 0;
#X connect 32 0 30 1;
#X connect 33 0 34 0;
#X connect 34 0 35 0;
#X connect 35 0 1 0;
#X connect 36 0 37 0;
#X connect 37 0 35 1;
#X connect 38 0 39 0;
#X connect 39 0 40 0;
#X connect 40 0 1 0;
#X connect 41 0 40 1;
#X connect 42 0 43 0;
#X connect 43 0 44 0;
#X connect 44 0 1 0;
#X connect 45 0 44 1;
#X connect 46 0 47 0;
#X connect 47 0 48 0;
#X connect 48 0 1 0;
#X connect 49 0 48 1;
#X connect 50 0 51 0;
#X connect 51 0 52 0;
#X connect 52 0 1 0;
#X connect 53 0 52 1;
#X connect 54 0 55 0;
#X connect 55 0 56 0;
#X connect 56 0 1 0;
#X connect 57 0 58 0;
#X connect 58 0 56 1;
#X connect 59 0 60 0;
#X connect 60 0 61 0;
#X connect 61 0 1 0;
#X connect 62 0 63 0;
#X connect 63 0 61 1;
#X connect 64 0 65 0;
#X connect 65 0 66 0;
#X connect 66 0 1 0;
#X connect 67 0 68 0;
#X connect 68 0 66 1;
#X connect 69 0 70 0;
#X connect 70 0 71 0;
#X connect 71 0 1 0;
#X connect 72 0 73 0;
#X connect 73 0 71 1;
#X connect 1 0 74 0;
#X restore 306 90  pd drums1 ;
#N canvas 261 18  clockdiv0 0 ;
#X obj 666 234 metro ;
#X obj 717 18 receive 4th_time ;
#X obj 717 90  / 4.0 ;
#X floatatom 717 162  5 0 0 0 - - - 0 ;
#X obj 545 18 r ON ;
#X obj 545 90 tgl 19 0 empty empty empty 0 -10 0 12 #fcfcfc #000000 #000000 0 1 ;
#X obj 499 162 sel 0 ;
#X obj 589 162 loadbang ;
#X obj 576 234 bng 19 250 50 0 empty empty empty 0 -10 0 12 #fcfcfc #000000 #000000 ;
#X msg 576 306  -1 ;
#X obj 711 378 int 1 ;
#X obj 666 306 bng 19 250 50 0 empty empty empty 0 -10 0 12 #fcfcfc #000000 #000000 ;
#X floatatom 711 450  5 0 0 0 - - - 0 ;
#X obj 711 522  % 16 ;
#X obj 711 594  + 1 ;
#X floatatom 711 666  5 0 0 0 - - - 0 ;
#X obj 756 306  + 1 ;
#X obj 711 738 sel 1 2 3 4 5 6 7 8 9 10 11 12 13 14 15 16 ;
#X obj 36 810 bng 19 250 50 0 empty empty empty 0 -10 0 12 #fcfcfc #000000 #000000 ;
#X obj 36 882 outlet ;
#X obj 126 810 bng 19 250 50 0 empty empty empty 0 -10 0 12 #fcfcfc #000000 #000000 ;
#X obj 126 882 outlet ;
#X obj 216 810 bng 19 250 50 0 empty empty empty 0 -10 0 12 #fcfcfc #000000 #000000 ;
#X obj 216 882 outlet ;
#X obj 306 810 bng 19 250 50 0 empty empty empty 0 -10 0 12 #fcfcfc #000000 #000000 ;
#X obj 306 882 outlet ;
#X obj 396 810 bng 19 250 50 0 empty empty empty 0 -10 0 12 #fcfcfc #000000 #000000 ;
#X obj 396 882 outlet ;
#X obj 486 810 bng 19 250 50 0 empty empty empty 0 -10 0 12 #fcfcfc #000000 #000000 ;
#X obj 486 882 outlet ;
#X obj 576 810 bng 19 250 50 0 empty empty empty 0 -10 0 12 #fcfcfc #000000 #000000 ;
#X obj 576 882 outlet ;
#X obj 666 810 bng 19 250 50 0 empty empty empty 0 -10 0 12 #fcfcfc #000000 #000000 ;
#X obj 666 882 outlet ;
#X obj 756 810 bng 19 250 50 0 empty empty empty 0 -10 0 12 #fcfcfc #000000 #000000 ;
#X obj 756 882 outlet ;
#X obj 846 810 bng 19 250 50 0 empty empty empty 0 -10 0 12 #fcfcfc #000000 #000000 ;
#X obj 846 882 outlet ;
#X obj 936 810 bng 19 250 50 0 empty empty empty 0 -10 0 12 #fcfcfc #000000 #000000 ;
#X obj 936 882 outlet ;
#X obj 1026 810 bng 19 250 50 0 empty empty empty 0 -10 0 12 #fcfcfc #000000 #000000 ;
#X obj 1026 882 outlet ;
#X obj 1116 810 bng 19 250 50 0 empty empty empty 0 -10 0 12 #fcfcfc #000000 #000000 ;
#X obj 1116 882 outlet ;
#X obj 1206 810 bng 19 250 50 0 empty empty empty 0 -10 0 12 #fcfcfc #000000 #000000 ;
#X obj 1206 882 outlet ;
#X obj 1296 810 bng 19 250 50 0 empty empty empty 0 -10 0 12 #fcfcfc #000000 #000000 ;
#X obj 1296 882 outlet ;
#X obj 1386 810 bng 19 250 50 0 empty empty empty 0 -10 0 12 #fcfcfc #000000 #000000 ;
#X obj 1386 882 outlet ;
#X connect 1 0 2 0;
#X connect 2 0 3 0;
#X connect 3 0 0 1;
#X connect 4 0 5 0;
#X connect 5 0 0 0;
#X connect 5 0 6 0;
#X connect 7 0 8 0;
#X connect 6 0 8 0;
#X connect 8 0 9 0;
#X connect 9 0 10 0;
#X connect 0 0 11 0;
#X connect 11 0 10 0;
#X connect 10 0 12 0;
#X connect 12 0 13 0;
#X connect 13 0 14 0;
#X connect 14 0 15 0;
#X connect 10 0 16 0;
#X connect 16 0 10 1;
#X connect 15 0 17 0;
#X connect 17 0 18 0;
#X connect 18 0 19 0;
#X connect 17 1 20 0;
#X connect 20 0 21 0;
#X connect 17 2 22 0;
#X connect 22 0 23 0;
#X connect 17 3 24 0;
#X connect 24 0 25 0;
#X connect 17 4 26 0;
#X connect 26 0 27 0;
#X connect 17 5 28 0;
#X connect 28 0 29 0;
#X connect 17 6 30 0;
#X connect 30 0 31 0;
#X connect 17 7 32 0;
#X connect 32 0 33 0;
#X connect 17 8 34 0;
#X connect 34 0 35 0;
#X connect 17 9 36 0;
#X connect 36 0 37 0;
#X connect 17 10 38 0;
#X connect 38 0 39 0;
#X connect 17 11 40 0;
#X connect 40 0 41 0;
#X connect 17 12 42 0;
#X connect 42 0 43 0;
#X connect 17 13 44 0;
#X connect 44 0 45 0;
#X connect 17 14 46 0;
#X connect 46 0 47 0;
#X connect 17 15 48 0;
#X connect 48 0 49 0;
#X restore 261 18  pd clockdiv0 ;
#N canvas 432 90  basicmixer0 0 ;
#X obj 135 234 dac~ ;
#X obj 135 162  *~ 1 ;
#X obj 72 18 receive~ kick ;
#X obj 81 90  *~ 0.4 ;
#X obj 198 18 receive~ hat ;
#X obj 189 90  *~ 0.4 ;
#X connect 2 0 3 0;
#X connect 3 0 1 0;
#X connect 4 0 5 0;
#X connect 5 0 1 0;
#X connect 1 0 0 0;
#X connect 1 0 0 1;
#X restore 432 90  pd basicmixer0 ;
#X connect 0 0 1 0;
#X connect 5 0 3 0;
#X connect 5 1 3 1;
#X connect 5 2 3 2;
#X connect 5 3 3 3;
#X connect 5 4 3 4;
#X connect 5 5 3 5;
#X connect 5 6 3 6;
#X connect 5 7 3 7;
#X connect 5 8 3 8;
#X connect 5 9 3 9;
#X connect 5 10 3 10;
#X connect 5 11 3 11;
#X connect 5 12 3 12;
#X connect 5 13 3 13;
#X connect 5 14 3 14;
#X connect 5 15 3 15;
#X connect 5 0 4 0;
#X connect 5 1 4 1;
#X connect 5 2 4 2;
#X connect 5 3 4 3;
#X connect 5 4 4 4;
#X connect 5 5 4 5;
#X connect 5 6 4 6;
#X connect 5 7 4 7;
#X connect 5 8 4 8;
#X connect 5 9 4 9;
#X connect 5 10 4 10;
#X connect 5 11 4 11;
#X connect 5 12 4 12;
#X connect 5 13 4 13;
#X connect 5 14 4 14;
#X connect 5 15 4 15;
