#N canvas 0 0 400 400 12 ;
#X text 0 0 ciao ;
#X obj 0 0 osc  ;
#X obj 0 0 dac  ;
#X text 0 0 dioca ;
#X text 0 0 ciao ;
#X msg 0 0 yo_bro ;
#X obj 0 0 noice ;
#X obj 0 0 send diofa ;
#X obj 0 0 send 2 ;
#X obj 0 0 send 3 ;
#X obj 0 0 send 4 ;
#X obj 0 0 send 88 ;
#X obj 0 0 bng 1 ;
#X obj 0 0 bng 2 ;
#X obj 0 0 bng 3 ;
#X obj 0 0 44 ;
#N canvas 0 0 400 400 clock1 ;
#X floatatom 0 0  ;
#X obj 0 0 metro  ;
#X obj 0 0 tgl  ;
#X obj 0 0 sel 0 ;
#X connect 0 1 1 1 ;
#X connect 1 1 2 2 ;
#X connect 3 1 2 1 ;
#X connect 3 1 4 1 ;
#X restore 120 120 pd clock1 ;
#X connect 0 3 1 2 ;
#X connect 1 1 2 1 ;
#X connect 1 1 3 1 ;
#X connect 2 1 4 1 ;
#X connect 3 1 4 1 ;
#X connect 4 1 5 1 ;
