#N canvas 0 0 400 400 12;
#N canvas 0 0 400 400 clock1;
#X obj 40 40 loadbang ;
#X msg 40 80 375.0 ;
#X floatatom 40 120 5 0 0 0 - - - 0;
#X obj 40 160 metro ;
#X obj 140 160 tgl 19 0 empty empty empty 0 -10 0 12 #fcfcfc #000000 #000000 0 1;
#X obj 240 200 sel 0 ;
#X obj 340 200 loadbang ;
#X obj 340 240 bng 19 250 50 0 empty empty empty 0 -10 0 12 #fcfcfc #000000 #000000;
#X msg 340 320 -1 ;
#X obj 340 360 int 1 ;
#X obj 40 400 bng 19 250 50 0 empty empty empty 0 -10 0 12 #fcfcfc #000000 #000000;
#X floatatom 340 480 5 0 0 0 - - - 0;
#X obj 340 520 % 8 ;
#X obj 340 560 + 1 ;
#X floatatom 340 600 5 0 0 0 - - - 0;
#X obj 440 480 + 1 ;
#X obj 340 680 sel 1 ;
#X obj 340 720 bng 19 250 50 0 empty empty empty 0 -10 0 12 #fcfcfc #000000 #000000;
#X obj 340 760 send one ;
#X obj 440 680 sel 2 ;
#X obj 440 800 bng 19 250 50 0 empty empty empty 0 -10 0 12 #fcfcfc #000000 #000000;
#X obj 440 840 send two ;
#X obj 540 680 sel 3 ;
#X obj 540 880 bng 19 250 50 0 empty empty empty 0 -10 0 12 #fcfcfc #000000 #000000;
#X obj 540 920 send three ;
#X obj 640 680 sel 4 ;
#X obj 640 960 bng 19 250 50 0 empty empty empty 0 -10 0 12 #fcfcfc #000000 #000000;
#X obj 640 1000 send four ;
#X obj 740 680 sel 5 ;
#X obj 740 1040 bng 19 250 50 0 empty empty empty 0 -10 0 12 #fcfcfc #000000 #000000;
#X obj 740 1080 send five ;
#X obj 840 680 sel 6 ;
#X obj 840 1120 bng 19 250 50 0 empty empty empty 0 -10 0 12 #fcfcfc #000000 #000000;
#X obj 840 1160 send six ;
#X obj 940 680 sel 7 ;
#X obj 940 1200 bng 19 250 50 0 empty empty empty 0 -10 0 12 #fcfcfc #000000 #000000;
#X obj 940 1240 send seven ;
#X obj 1040 680 sel 8 ;
#X obj 1040 1280 bng 19 250 50 0 empty empty empty 0 -10 0 12 #fcfcfc #000000 #000000;
#X obj 1040 1320 send eight ;
#X connect 0 0 1 0;
#X connect 1 0 2 0;
#X connect 2 0 3 1;
#X connect 4 0 3 0;
#X connect 4 0 5 0;
#X connect 6 0 7 0;
#X connect 5 0 7 0;
#X connect 7 0 8 0;
#X connect 8 0 9 0;
#X connect 3 0 10 0;
#X connect 10 0 9 0;
#X connect 9 0 11 0;
#X connect 11 0 12 0;
#X connect 12 0 13 0;
#X connect 13 0 14 0;
#X connect 9 0 15 0;
#X connect 15 0 9 1;
#X connect 14 0 16 0;
#X connect 16 0 17 0;
#X connect 17 0 18 0;
#X connect 14 0 19 0;
#X connect 19 0 20 0;
#X connect 20 0 21 0;
#X connect 14 0 22 0;
#X connect 22 0 23 0;
#X connect 23 0 24 0;
#X connect 14 0 25 0;
#X connect 25 0 26 0;
#X connect 26 0 27 0;
#X connect 14 0 28 0;
#X connect 28 0 29 0;
#X connect 29 0 30 0;
#X connect 14 0 31 0;
#X connect 31 0 32 0;
#X connect 32 0 33 0;
#X connect 14 0 34 0;
#X connect 34 0 35 0;
#X connect 35 0 36 0;
#X connect 14 0 37 0;
#X connect 37 0 38 0;
#X connect 38 0 39 0;
#X restore 40 40 pd clock1;
