#N canvas 612 0 745 716 12;
#X obj 70 139 r whole_note;
#X obj 72 203 bng 19 250 50 0 empty empty empty 0 -10 0 12 #fcfcfc #000000 #000000;
#X obj 72 230 Chords_Scales;
#X floatatom 184 270 5 0 0 0 - - - 0;
#X obj 404 199 bng 19 250 50 0 empty empty empty 0 -10 0 12 #fcfcfc #000000 #000000;
#X obj 181 383 phasor~;
#X obj 181 433 lop~ 100;
#X obj 178 535 *~;
#X obj 178 559 *~ 0.5;
#X obj 178 583 send~ Ambient_Pad;
#X obj 262 383 phasor~;
#X floatatom 262 342 5 0 0 0 - - - 0;
#X obj 260 309 * 1.001;
#X msg 405 300 1 500;
#X obj 405 348 line;
#X obj 471 247 delay;
#X msg 474 300 0 500;
#X obj 504 126 receive whole_time;
#X floatatom 504 150 5 0 0 0 - - - 0;
#X obj 504 173 - 500;
#X obj 592 176 receive ON;
#X obj 592 210 sel 0;
#X obj 592 248 delay 5;
#X connect 0 0 1 0;
#X connect 0 0 4 0;
#X connect 1 0 2 0;
#X connect 2 0 3 0;
#X connect 3 0 5 0;
#X connect 3 0 12 0;
#X connect 4 0 13 0;
#X connect 4 0 15 0;
#X connect 5 0 6 0;
#X connect 6 0 7 0;
#X connect 7 0 8 0;
#X connect 8 0 9 0;
#X connect 10 0 6 0;
#X connect 11 0 10 0;
#X connect 12 0 11 0;
#X connect 13 0 14 0;
#X connect 14 0 7 1;
#X connect 15 0 16 0;
#X connect 16 0 14 0;
#X connect 17 0 18 0;
#X connect 18 0 19 0;
#X connect 19 0 15 1;
#X connect 20 0 21 0;
#X connect 21 0 22 0;
#X connect 22 0 16 0;
