#N canvas 407 95 663 716 12;
#X text 131 83 Bass;
#X obj 75 150 r Chord;
#X obj 73 200 tgl 19 0 empty empty empty 0 -10 0 12 #fcfcfc #000000 #000000 0 1;
#X obj 75 237 sel 0;
#X msg 71 315 130.81;
#X msg 151 318 87.31;
#X floatatom 70 388 5 0 0 0 - - - 0;
#X obj 70 434 phasor~;
#X obj 70 478 lop~ 100;
#X obj 71 515 *~;
#X obj 71 558 send~ Bass;
#X obj 250 300 receive ON;
#X obj 249 339 sel 1;
#X msg 249 387 1 500;
#X obj 245 471 line;
#X obj 404 249 receive whole_time;
#X obj 404 274 * 2;
#X floatatom 404 297 5 0 0 0 - - - 0;
#X obj 404 320 - 100;
#X obj 348 391 delay;
#X msg 348 434 0 100;
#X obj 475 293 receive ON;
#X obj 475 332 sel 0;
#X obj 475 364 delay 5;
#X text 334 197 Envelope;
#X obj 67 276 bng 19 250 50 0 empty empty empty 0 -10 0 12 #fcfcfc #000000 #000000;
#X obj 146 278 bng 19 250 50 0 empty empty empty 0 -10 0 12 #fcfcfc #000000 #000000;
#X obj 249 362 bng 19 250 50 0 empty empty empty 0 -10 0 12 #fcfcfc #000000 #000000;
#X connect 1 0 2 0;
#X connect 2 0 3 0;
#X connect 3 0 25 0;
#X connect 3 1 26 0;
#X connect 4 0 6 0;
#X connect 5 0 6 0;
#X connect 6 0 7 0;
#X connect 7 0 8 0;
#X connect 8 0 9 0;
#X connect 9 0 10 0;
#X connect 11 0 12 0;
#X connect 12 0 27 0;
#X connect 13 0 14 0;
#X connect 14 0 9 1;
#X connect 15 0 16 0;
#X connect 16 0 17 0;
#X connect 17 0 18 0;
#X connect 18 0 19 0;
#X connect 19 0 20 0;
#X connect 20 0 14 0;
#X connect 21 0 22 0;
#X connect 22 0 23 0;
#X connect 23 0 20 0;
#X connect 25 0 4 0;
#X connect 26 0 5 0;
#X connect 27 0 13 0;
