#N canvas 581 36 717 300 12;
#X text 86 29 clock multiplication;
#X obj 58 85 receive ON;
#X obj 61 181 metro;
#X obj 61 212 bng 19 250 50 0 empty empty empty 0 -10 0 12 #fcfcfc #000000 #000000;
#X obj 61 241 send whole_note;
#X obj 167 85 receive 4th_time;
#X floatatom 167 137 5 0 0 0 - - - 0;
#X obj 167 179 send whole_time;
#X obj 167 109 * 4;
#X obj 337 85 receive ON;
#X obj 340 181 metro;
#X obj 340 212 bng 19 250 50 0 empty empty empty 0 -10 0 12 #fcfcfc #000000 #000000;
#X obj 446 85 receive 4th_time;
#X floatatom 446 137 5 0 0 0 - - - 0;
#X obj 446 109 * 1;
#X obj 340 241 send 4th_note;
#X connect 1 0 2 0;
#X connect 2 0 3 0;
#X connect 3 0 4 0;
#X connect 5 0 8 0;
#X connect 6 0 7 0;
#X connect 6 0 2 1;
#X connect 8 0 6 0;
#X connect 9 0 10 0;
#X connect 10 0 11 0;
#X connect 11 0 15 0;
#X connect 12 0 14 0;
#X connect 13 0 10 1;
#X connect 14 0 13 0;
