#N canvas -41 0 1366 725 12;
#X obj 752 55 tgl 19 0 empty empty empty 0 -10 0 12 #fcfcfc #000000 #000000 0 1;
#X text 746 23 On/Off;
#X obj 752 79 send ON;
#X obj 500 61 loadbang;
#X obj 558 204 /;
#X floatatom 558 233 5 0 0 0 - - - 0;
#X obj 576 61 loadbang;
#X msg 577 85 60;
#X floatatom 576 109 5 0 0 0 - - - 0;
#X obj 553 145 bng 19 250 50 0 empty empty empty 0 -10 0 12 #fcfcfc #000000 #000000;
#X text 534 24 BPM;
#X obj 558 256 send 4th_time;
#X text 986 33 Clock/Sequencer;
#X obj 910 102 loadbang;
#X obj 997 159 bng 19 250 50 0 empty empty empty 0 -10 0 12 #fcfcfc #000000 #000000;
#X obj 999 102 sel 0;
#X obj 1000 68 receive ON;
#X msg 997 189 -1;
#X obj 1075 240 int 1, f 7;
#X floatatom 1075 293 5 0 0 0 - - - 0;
#X obj 1075 379 + 1;
#X obj 1076 419 sel 1;
#X obj 1075 343 % 2;
#X obj 1074 189 bng 19 250 50 0 empty empty empty 0 -10 0 12 #fcfcfc #000000 #000000;
#X obj 1077 140 receive whole_note;
#X obj 1167 274 + 1;
#X obj 981 373 loadbang;
#X obj 911 372 sel 0;
#X obj 912 338 receive ON;
#X msg 980 418 1;
#X obj 1077 466 bng 19 250 50 0 empty empty empty 0 -10 0 12 #fcfcfc #000000 #000000;
#X obj 1078 515 tgl 19 0 empty empty empty 0 -10 0 12 #fcfcfc #000000 #000000 0 1;
#X obj 1080 561 send Chord;
#X text 324 326 clock multiplication;
#X obj 296 382 receive ON;
#X obj 299 478 metro;
#X obj 299 509 bng 19 250 50 0 empty empty empty 0 -10 0 12 #fcfcfc #000000 #000000;
#X obj 299 538 send whole_note;
#X obj 405 382 receive 4th_time;
#X floatatom 405 434 5 0 0 0 - - - 0;
#X obj 405 476 send whole_time;
#X obj 405 406 * 4;
#X obj 575 382 receive ON;
#X obj 578 478 metro;
#X obj 578 509 bng 19 250 50 0 empty empty empty 0 -10 0 12 #fcfcfc #000000 #000000;
#X obj 684 382 receive 4th_time;
#X floatatom 684 434 5 0 0 0 - - - 0;
#X obj 684 406 * 1;
#X obj 578 538 send 4th_note;
#X text 366 623 Bass;
#X obj 310 690 r Chord;
#X obj 308 740 tgl 19 0 empty empty empty 0 -10 0 12 #fcfcfc #000000 #000000 0 1;
#X obj 310 777 sel 0;
#X msg 306 855 130.81;
#X msg 386 858 87.31;
#X floatatom 305 928 5 0 0 0 - - - 0;
#X obj 305 974 phasor~;
#X obj 305 1018 lop~ 100;
#X obj 306 1055 *~;
#X obj 306 1098 send~ Bass;
#X obj 485 840 receive ON;
#X obj 484 879 sel 1;
#X msg 484 927 1 500;
#X obj 480 1011 line;
#X obj 639 789 receive whole_time;
#X obj 639 814 * 2;
#X floatatom 639 837 5 0 0 0 - - - 0;
#X obj 639 860 - 100;
#X obj 583 931 delay;
#X msg 583 974 0 100;
#X obj 710 833 receive ON;
#X obj 710 872 sel 0;
#X obj 710 904 delay 5;
#X text 569 737 Envelope;
#X obj 302 816 bng 19 250 50 0 empty empty empty 0 -10 0 12 #fcfcfc #000000 #000000;
#X obj 381 818 bng 19 250 50 0 empty empty empty 0 -10 0 12 #fcfcfc #000000 #000000;
#X obj 484 902 bng 19 250 50 0 empty empty empty 0 -10 0 12 #fcfcfc #000000 #000000;
#X obj 876 756 r whole_note;
#X obj 878 820 bng 19 250 50 0 empty empty empty 0 -10 0 12 #fcfcfc #000000 #000000;
#X obj 878 847 Chords_Scales;
#X floatatom 990 887 5 0 0 0 - - - 0;
#X obj 1210 816 bng 19 250 50 0 empty empty empty 0 -10 0 12 #fcfcfc #000000 #000000;
#X obj 987 1000 phasor~;
#X obj 987 1050 lop~ 100;
#X obj 984 1152 *~;
#X obj 984 1200 send~ Ambient_Pad;
#X obj 1068 1000 phasor~;
#X floatatom 1068 959 5 0 0 0 - - - 0;
#X msg 1211 917 1 500;
#X obj 1211 965 line;
#X obj 1277 864 delay;
#X msg 1280 917 0 500;
#X obj 1310 743 receive whole_time;
#X floatatom 1310 767 5 0 0 0 - - - 0;
#X obj 1310 790 - 500;
#X obj 1398 793 receive ON;
#X obj 1398 827 sel 0;
#X obj 1398 865 delay 5;
#X obj 440 1250 receive~ Bass;
#X obj 560 1250 receive~ Ambient_Pad;
#X obj 725 1250 loadbang;
#X obj 799 1251 loadbang;
#X obj 875 1252 loadbang;
#X msg 725 1295 1;
#X msg 799 1297 0.5;
#X msg 875 1297 0.95;
#X msg 725 1319 wet \$1;
#X msg 876 1327 roomsize \$1;
#X msg 799 1321 dry \$1;
#X obj 582 1486 *~ 0.5;
#X obj 580 1541 dac~;
#X obj 579 1410 freeverb~;
#X obj 646 1485 *~ 0.5;
#X msg 500 85 60000;
#X obj 1066 926 * 1.001;
#X obj 984 1176 *~ 0.5;
#X connect 0 0 2 0;
#X connect 3 0 113 0;
#X connect 4 0 5 0;
#X connect 5 0 11 0;
#X connect 6 0 7 0;
#X connect 7 0 8 0;
#X connect 8 0 9 0;
#X connect 8 0 4 1;
#X connect 9 0 4 0;
#X connect 13 0 14 0;
#X connect 14 0 17 0;
#X connect 15 0 14 0;
#X connect 16 0 15 0;
#X connect 17 0 18 0;
#X connect 18 0 19 0;
#X connect 18 0 25 0;
#X connect 19 0 22 0;
#X connect 20 0 21 0;
#X connect 21 0 30 0;
#X connect 22 0 20 0;
#X connect 23 0 18 0;
#X connect 24 0 23 0;
#X connect 25 0 18 1;
#X connect 26 0 29 0;
#X connect 27 0 29 0;
#X connect 28 0 27 0;
#X connect 29 0 31 0;
#X connect 30 0 31 0;
#X connect 31 0 32 0;
#X connect 34 0 35 0;
#X connect 35 0 36 0;
#X connect 36 0 37 0;
#X connect 38 0 41 0;
#X connect 39 0 40 0;
#X connect 39 0 35 1;
#X connect 41 0 39 0;
#X connect 42 0 43 0;
#X connect 43 0 44 0;
#X connect 44 0 48 0;
#X connect 45 0 47 0;
#X connect 46 0 43 1;
#X connect 47 0 46 0;
#X connect 50 0 51 0;
#X connect 51 0 52 0;
#X connect 52 0 74 0;
#X connect 52 1 75 0;
#X connect 53 0 55 0;
#X connect 54 0 55 0;
#X connect 55 0 56 0;
#X connect 56 0 57 0;
#X connect 57 0 58 0;
#X connect 58 0 59 0;
#X connect 60 0 61 0;
#X connect 61 0 76 0;
#X connect 62 0 63 0;
#X connect 63 0 58 1;
#X connect 64 0 65 0;
#X connect 65 0 66 0;
#X connect 66 0 67 0;
#X connect 67 0 68 0;
#X connect 68 0 69 0;
#X connect 69 0 63 0;
#X connect 70 0 71 0;
#X connect 71 0 72 0;
#X connect 72 0 69 0;
#X connect 74 0 53 0;
#X connect 75 0 54 0;
#X connect 76 0 62 0;
#X connect 77 0 78 0;
#X connect 77 0 81 0;
#X connect 78 0 79 0;
#X connect 79 0 80 0;
#X connect 80 0 82 0;
#X connect 80 0 114 0;
#X connect 81 0 88 0;
#X connect 81 0 90 0;
#X connect 82 0 83 0;
#X connect 83 0 84 0;
#X connect 84 0 115 0;
#X connect 86 0 83 0;
#X connect 87 0 86 0;
#X connect 88 0 89 0;
#X connect 89 0 84 1;
#X connect 90 0 91 0;
#X connect 91 0 89 0;
#X connect 92 0 93 0;
#X connect 93 0 94 0;
#X connect 94 0 90 1;
#X connect 95 0 96 0;
#X connect 96 0 97 0;
#X connect 97 0 91 0;
#X connect 98 0 109 0;
#X connect 98 0 112 0;
#X connect 99 0 111 0;
#X connect 99 0 111 1;
#X connect 100 0 103 0;
#X connect 101 0 104 0;
#X connect 102 0 105 0;
#X connect 103 0 106 0;
#X connect 104 0 108 0;
#X connect 105 0 107 0;
#X connect 106 0 111 0;
#X connect 107 0 111 0;
#X connect 108 0 111 0;
#X connect 109 0 110 0;
#X connect 111 0 109 0;
#X connect 111 1 112 0;
#X connect 112 0 110 1;
#X connect 113 0 4 0;
#X connect 114 0 87 0;
#X connect 115 0 85 0;
