#N canvas 876 0 481 716 12;
#X text 150 112 Clock/Sequencer;
#X obj 74 181 loadbang;
#X obj 161 238 bng 19 250 50 0 empty empty empty 0 -10 0 12 #fcfcfc #000000 #000000;
#X obj 163 181 sel 0;
#X obj 164 147 receive ON;
#X msg 161 268 -1;
#X obj 239 319 int 1, f 7;
#X floatatom 239 372 5 0 0 0 - - - 0;
#X obj 239 458 + 1;
#X obj 240 498 sel 1;
#X obj 239 422 % 2;
#X obj 238 268 bng 19 250 50 0 empty empty empty 0 -10 0 12 #fcfcfc #000000 #000000;
#X obj 241 219 receive whole_note;
#X obj 331 353 + 1;
#X obj 145 452 loadbang;
#X obj 75 451 sel 0;
#X obj 76 417 receive ON;
#X msg 144 497 1;
#X obj 241 545 bng 19 250 50 0 empty empty empty 0 -10 0 12 #fcfcfc #000000 #000000;
#X obj 242 594 tgl 19 0 empty empty empty 0 -10 0 12 #fcfcfc #000000 #000000 0 1;
#X obj 244 640 send Chord;
#X connect 1 0 2 0;
#X connect 2 0 5 0;
#X connect 3 0 2 0;
#X connect 4 0 3 0;
#X connect 5 0 6 0;
#X connect 6 0 7 0;
#X connect 6 0 13 0;
#X connect 7 0 10 0;
#X connect 8 0 9 0;
#X connect 9 0 18 0;
#X connect 10 0 8 0;
#X connect 11 0 6 0;
#X connect 12 0 11 0;
#X connect 13 0 6 1;
#X connect 14 0 17 0;
#X connect 15 0 17 0;
#X connect 16 0 15 0;
#X connect 17 0 19 0;
#X connect 18 0 19 0;
#X connect 19 0 20 0;
