#N canvas 300 100 800 500 12 ;
#X obj 40 120 bng 19 250 50 0 empty empty empty 0 -10 0 12 #fcfcfc #000000 #000000;
#X obj 40 160 s bang ;
#N canvas 0 0 400 400 onoff;
#X obj 40 120 loadbang ;
#X msg 40 160 dsp 1 ;
#X obj 40 200 s pd ;
#X connect 0 0 1 0;
#X connect 1 0 2 0;
#X restore 40 40 pd onoff;
#N canvas 0 0 400 400 synth;
#X obj 40 120 loadbang ;
#X msg 40 160 440 ;
#X floatatom 40 200 5 0 0 0 - - - 0;
#X obj 40 280 *~ 0.25 ;
#X obj 40 240 osc~ ;
#X obj 40 320 s~ source ;
#X obj 140 240 * 3 ;
#X floatatom 140 280 5 0 0 0 - - - 0;
#X obj 140 320 osc~ ;
#X obj 140 360 *~ 0.75 ;
#X obj 240 240 * 5 ;
#X floatatom 240 280 5 0 0 0 - - - 0;
#X obj 240 320 osc~ ;
#X obj 240 360 *~ 0.5 ;
#X obj 340 240 * 7 ;
#X floatatom 340 280 5 0 0 0 - - - 0;
#X obj 340 320 osc~ ;
#X obj 340 360 *~ 0.25 ;
#X connect 0 0 1 0;
#X connect 1 0 2 0;
#X connect 2 0 4 0;
#X connect 4 0 3 0;
#X connect 3 0 5 0;
#X connect 2 0 6 0;
#X connect 6 0 7 0;
#X connect 7 0 8 0;
#X connect 8 0 9 0;
#X connect 9 0 3 0;
#X connect 2 0 10 0;
#X connect 10 0 11 0;
#X connect 11 0 12 0;
#X connect 12 0 13 0;
#X connect 13 0 3 0;
#X connect 2 0 14 0;
#X connect 14 0 15 0;
#X connect 15 0 16 0;
#X connect 16 0 17 0;
#X connect 17 0 3 0;
#X restore 140 40 pd synth;
#N canvas 0 0 400 400 adsr;
#X obj 40 120 r~ source ;
#X obj 40 160 *~ 0.5 ;
#X obj 40 200 *~ ;
#X obj 40 240 *~ 0.25 ;
#X obj 40 280 dac~ ;
#X obj 140 120 r bang ;
#X msg 140 160 1 1000 ;
#X obj 140 200 line~ ;
#X obj 240 160 delay 1000 ;
#X obj 240 200 bng 19 250 50 0 empty empty empty 0 -10 0 12 #fcfcfc #000000 #000000;
#X msg 240 240 0.5 1500 ;
#X obj 340 240 delay 3000 ;
#X obj 340 280 bng 19 250 50 0 empty empty empty 0 -10 0 12 #fcfcfc #000000 #000000;
#X msg 340 320 0 1000 ;
#X connect 0 0 1 0;
#X connect 1 0 2 0;
#X connect 2 0 3 0;
#X connect 3 0 4 0;
#X connect 5 0 6 0;
#X connect 6 0 7 0;
#X connect 7 0 2 1;
#X connect 5 0 8 0;
#X connect 8 0 9 0;
#X connect 9 0 10 0;
#X connect 10 0 7 0;
#X connect 9 0 11 0;
#X connect 11 0 12 0;
#X connect 12 0 13 0;
#X connect 13 0 7 0;
#X restore 240 40 pd adsr;
#X connect 0 0 1 0;
