#N canvas 300 100 800 500 12 ;
#X obj 140 160 s x ;
#X obj 40 120 bng 19 250 50 0 empty empty empty 0 -10 0 12 #fcfcfc #000000 #000000;
#X msg 40 160 261.63 ;
#X floatatom 40 200 5 0 0 0 - - - 0;
#X obj 40 240 send y ;
#X obj 140 120 bng 19 250 50 0 empty empty empty 0 -10 0 12 #fcfcfc #000000 #000000;
#X msg 140 160 293.66 ;
#X floatatom 140 200 5 0 0 0 - - - 0;
#X obj 140 240 send y ;
#X obj 240 120 bng 19 250 50 0 empty empty empty 0 -10 0 12 #fcfcfc #000000 #000000;
#X msg 240 160 329.63 ;
#X floatatom 240 200 5 0 0 0 - - - 0;
#X obj 240 240 send y ;
#X obj 340 120 bng 19 250 50 0 empty empty empty 0 -10 0 12 #fcfcfc #000000 #000000;
#X msg 340 160 349.23 ;
#X floatatom 340 200 5 0 0 0 - - - 0;
#X obj 340 240 send y ;
#X obj 440 120 bng 19 250 50 0 empty empty empty 0 -10 0 12 #fcfcfc #000000 #000000;
#X msg 440 160 392.00 ;
#X floatatom 440 200 5 0 0 0 - - - 0;
#X obj 440 240 send y ;
#X obj 540 120 bng 19 250 50 0 empty empty empty 0 -10 0 12 #fcfcfc #000000 #000000;
#X msg 540 160 440.00 ;
#X floatatom 540 200 5 0 0 0 - - - 0;
#X obj 540 240 send y ;
#X obj 640 120 bng 19 250 50 0 empty empty empty 0 -10 0 12 #fcfcfc #000000 #000000;
#X msg 640 160 493.88 ;
#X floatatom 640 200 5 0 0 0 - - - 0;
#X obj 640 240 send y ;
#N canvas 0 0 400 400 onoff;
#X obj 40 120 loadbang ;
#X msg 40 160 dsp 1 ;
#X obj 40 200 s pd ;
#X connect 0 0 1 0;
#X connect 1 0 2 0;
#X restore 40 40 pd onoff;
#N canvas 0 0 400 400 adsr;
#X obj 40 120 r~ source ;
#X obj 40 160 *~ 0.5 ;
#X obj 40 200 *~ ;
#X obj 40 240 *~ 0.25 ;
#X obj 40 280 dac~ ;
#X obj 140 120 r x ;
#X msg 140 160 1 1000 ;
#X obj 140 200 line~ ;
#X obj 240 160 delay 1000 ;
#X obj 240 200 bng 19 250 50 0 empty empty empty 0 -10 0 12 #fcfcfc #000000 #000000;
#X msg 240 240 0.5 1500 ;
#X obj 340 240 delay 3000 ;
#X obj 340 280 bng 19 250 50 0 empty empty empty 0 -10 0 12 #fcfcfc #000000 #000000;
#X msg 340 320 0 1000 ;
#X connect 0 0 1 0;
#X connect 1 0 2 0;
#X connect 2 0 3 0;
#X connect 3 0 4 0;
#X connect 5 0 6 0;
#X connect 6 0 7 0;
#X connect 7 0 2 1;
#X connect 5 0 8 0;
#X connect 8 0 9 0;
#X connect 9 0 10 0;
#X connect 10 0 7 0;
#X connect 9 0 11 0;
#X connect 11 0 12 0;
#X connect 12 0 13 0;
#X connect 13 0 7 0;
#X restore 140 40 pd adsr;
#N canvas 0 0 400 400 synth;
#X obj 40 120 r y ;
#X floatatom 40 160 5 0 0 0 - - - 0;
#X obj 40 240 *~ 0.25 ;
#X obj 40 200 osc~ ;
#X obj 40 280 s~ source ;
#X obj 140 200 * 3 ;
#X floatatom 140 240 5 0 0 0 - - - 0;
#X obj 140 280 osc~ ;
#X obj 140 320 *~ 0.75 ;
#X obj 240 200 * 5 ;
#X floatatom 240 240 5 0 0 0 - - - 0;
#X obj 240 280 osc~ ;
#X obj 240 320 *~ 0.5 ;
#X obj 340 200 * 7 ;
#X floatatom 340 240 5 0 0 0 - - - 0;
#X obj 340 280 osc~ ;
#X obj 340 320 *~ 0.25 ;
#X connect 0 0 1 0;
#X connect 1 0 3 0;
#X connect 3 0 2 0;
#X connect 2 0 4 0;
#X connect 1 0 5 0;
#X connect 5 0 6 0;
#X connect 6 0 7 0;
#X connect 7 0 8 0;
#X connect 8 0 2 0;
#X connect 1 0 9 0;
#X connect 9 0 10 0;
#X connect 10 0 11 0;
#X connect 11 0 12 0;
#X connect 12 0 2 0;
#X connect 1 0 13 0;
#X connect 13 0 14 0;
#X connect 14 0 15 0;
#X connect 15 0 16 0;
#X connect 16 0 2 0;
#X restore 240 40 pd synth;
#X connect 1 0 2 0;
#X connect 2 0 3 0;
#X connect 3 0 4 0;
#X connect 1 0 0 0;
#X connect 5 0 6 0;
#X connect 6 0 7 0;
#X connect 7 0 8 0;
#X connect 5 0 0 0;
#X connect 9 0 10 0;
#X connect 10 0 11 0;
#X connect 11 0 12 0;
#X connect 9 0 0 0;
#X connect 13 0 14 0;
#X connect 14 0 15 0;
#X connect 15 0 16 0;
#X connect 13 0 0 0;
#X connect 17 0 18 0;
#X connect 18 0 19 0;
#X connect 19 0 20 0;
#X connect 17 0 0 0;
#X connect 21 0 22 0;
#X connect 22 0 23 0;
#X connect 23 0 24 0;
#X connect 21 0 0 0;
#X connect 25 0 26 0;
#X connect 26 0 27 0;
#X connect 27 0 28 0;
#X connect 25 0 0 0;
