#N canvas 636 0 757 716 12;
#X obj 62 171 loadbang;
#X obj 146 219 bng 19 250 50 0 empty empty empty 0 -10 0 12 #fcfcfc #000000 #000000;
#X obj 146 170 sel 0;
#X msg 146 243 -1;
#X obj 219 126 tgl 19 0 empty empty empty 0 -10 0 12 #fcfcfc #000000 #000000 0 1;
#X obj 249 66 loadbang;
#X msg 249 91 375;
#X floatatom 250 125 5 0 0 0 - - - 0;
#X text 112 12 [CLOCK];
#X text 303 90 ms;
#X obj 218 169 metro;
#X obj 219 216 bng 19 250 50 0 empty empty empty 0 -10 0 12 #fcfcfc #000000 #000000;
#X obj 219 290 int 1;
#X obj 314 338 + 1;
#X floatatom 219 314 5 0 0 0 - - - 0;
#X obj 219 350 % 8;
#X obj 219 374 + 1;
#X floatatom 219 398 5 0 0 0 - - - 0;
#X obj 218 454 sel 1;
#X obj 218 493 bng 19 250 50 0 empty empty empty 0 -10 0 12 #fcfcfc #000000 #000000;
#X obj 218 536 s One;
#X obj 281 493 bng 19 250 50 0 empty empty empty 0 -10 0 12 #fcfcfc #000000 #000000;
#X obj 341 493 bng 19 250 50 0 empty empty empty 0 -10 0 12 #fcfcfc #000000 #000000;
#X obj 413 493 bng 19 250 50 0 empty empty empty 0 -10 0 12 #fcfcfc #000000 #000000;
#X obj 473 491 bng 19 250 50 0 empty empty empty 0 -10 0 12 #fcfcfc #000000 #000000;
#X obj 530 490 bng 19 250 50 0 empty empty empty 0 -10 0 12 #fcfcfc #000000 #000000;
#X obj 594 492 bng 19 250 50 0 empty empty empty 0 -10 0 12 #fcfcfc #000000 #000000;
#X obj 654 491 bng 19 250 50 0 empty empty empty 0 -10 0 12 #fcfcfc #000000 #000000;
#X obj 281 454 sel 2;
#X obj 341 454 sel 3;
#X obj 413 454 sel 4;
#X obj 473 452 sel 5;
#X obj 530 451 sel 6;
#X obj 594 453 sel 7;
#X obj 654 452 sel 8;
#X obj 281 536 s Two;
#X obj 341 536 s Three;
#X obj 413 536 s Four;
#X obj 473 534 s Five;
#X obj 530 533 s Six;
#X obj 594 535 s Seven;
#X obj 654 534 s Eight;
#X connect 0 0 1 0;
#X connect 1 0 3 0;
#X connect 2 0 1 0;
#X connect 3 0 12 0;
#X connect 4 0 2 0;
#X connect 4 0 10 0;
#X connect 5 0 6 0;
#X connect 6 0 7 0;
#X connect 7 0 10 1;
#X connect 10 0 11 0;
#X connect 11 0 12 0;
#X connect 12 0 13 0;
#X connect 12 0 14 0;
#X connect 13 0 12 1;
#X connect 14 0 15 0;
#X connect 15 0 16 0;
#X connect 16 0 17 0;
#X connect 17 0 18 0;
#X connect 17 0 28 0;
#X connect 17 0 29 0;
#X connect 17 0 30 0;
#X connect 17 0 31 0;
#X connect 17 0 32 0;
#X connect 17 0 33 0;
#X connect 17 0 34 0;
#X connect 18 0 19 0;
#X connect 19 0 20 0;
#X connect 21 0 35 0;
#X connect 22 0 36 0;
#X connect 23 0 37 0;
#X connect 24 0 38 0;
#X connect 25 0 39 0;
#X connect 26 0 40 0;
#X connect 27 0 41 0;
#X connect 28 0 21 0;
#X connect 29 0 22 0;
#X connect 30 0 23 0;
#X connect 31 0 24 0;
#X connect 32 0 25 0;
#X connect 33 0 26 0;
#X connect 34 0 27 0;
