#N canvas 676 207 681 509 12 ;
#N canvas 697 62 450 300 onoff 0;
#X floatatom 40 0  dsp None 1;
#X obj 40 40 s pd;
#X restore 69 69 pd onoff;
#X floatatom 80 40  None 440;
#X obj 40 80 osc~ ;
#X obj 80 80  * 2;
#X obj 120 80  * 3;
#X obj 160 80  * 4;
#X obj 200 80  * 5;
#X obj 40 120  *~ 0.1;
#X floatatom 80 160  ;
#X obj 80 200 osc~ ;
#X obj 40 240  *~ 0.75;
#X floatatom 80 280  ;
#X obj 80 320 osc~ ;
#X obj 40 360  *~ 0.5;
#X floatatom 80 400  ;
#X obj 80 440 osc~ ;
#X obj 40 480  *~ 0.35;
#X floatatom 80 520  ;
#X obj 80 560 osc~ ;
#X obj 40 600  *~ 0.25;
#X obj 335 69 dac~ ;
#X connect 1 0 2 0;
#X connect 3 0 4 0;
#X connect 3 0 5 0;
#X connect 3 0 6 0;
#X connect 3 0 7 0;
#X connect 3 0 8 0;
#X connect 0 0 9 0;
#X connect 0 0 10 0;
#X connect 10 0 11 0;
#X connect 11 0 12 0;
#X connect 0 0 13 0;
#X connect 13 0 14 0;
#X connect 14 0 15 0;
#X connect 0 0 16 0;
#X connect 16 0 17 0;
#X connect 17 0 18 0;
#X connect 0 0 19 0;
#X connect 19 0 20 0;
#X connect 20 0 21 0;
