#N canvas 676 0 681 716 12;
#X obj 88 36 inlet;
#X obj 88 60 mtof;
#X floatatom 88 185 5 0 0 0 - - - 0;
#X obj 88 208 phasor~;
#X obj 88 232 send~ Saw_Bass;
#X obj 243 146 bng 19 250 50 0 empty empty empty 0 -10 0 12 #fcfcfc #000000 #000000;
#X msg 243 188 1 10;
#X obj 243 272 line;
#X floatatom 243 296 5 0 0 0 - - - 0;
#X obj 243 319 * 4000;
#X obj 243 343 + 500;
#X floatatom 243 367 5 0 0 0 - - - 0;
#X obj 243 390 s Filter_Freq;
#X obj 339 183 delay 10;
#X msg 339 207 0 250;
#X obj 430 173 receive~ Saw_Bass;
#X obj 428 322 vcf~;
#X obj 440 199 r Filter_Freq;
#X obj 456 238 loadbang;
#X msg 456 262 9;
#X obj 595 176 receive~ Saw_Bass;
#X obj 593 325 vcf~;
#X obj 605 202 r Filter_Freq;
#X obj 621 241 loadbang;
#X msg 621 265 25;
#X obj 762 149 bng 19 250 50 0 empty empty empty 0 -10 0 12 #fcfcfc #000000 #000000;
#X msg 762 206 1 10;
#X obj 760 283 line;
#X floatatom 760 307 5 0 0 0 - - - 0;
#X obj 743 415 *~;
#X obj 811 206 delay 10;
#X msg 811 230 0 250;
#X obj 743 439 outlet~;
#X connect 0 0 1 0;
#X connect 1 0 2 0;
#X connect 1 0 5 0;
#X connect 1 0 25 0;
#X connect 2 0 3 0;
#X connect 3 0 4 0;
#X connect 5 0 6 0;
#X connect 5 0 13 0;
#X connect 6 0 7 0;
#X connect 7 0 8 0;
#X connect 8 0 9 0;
#X connect 9 0 10 0;
#X connect 10 0 11 0;
#X connect 11 0 12 0;
#X connect 13 0 14 0;
#X connect 14 0 7 0;
#X connect 15 0 16 0;
#X connect 16 0 29 0;
#X connect 17 0 16 1;
#X connect 18 0 19 0;
#X connect 19 0 16 2;
#X connect 20 0 21 0;
#X connect 21 0 29 0;
#X connect 22 0 21 1;
#X connect 23 0 24 0;
#X connect 24 0 21 2;
#X connect 25 0 26 0;
#X connect 25 0 30 0;
#X connect 26 0 27 0;
#X connect 27 0 28 0;
#X connect 28 0 29 1;
#X connect 29 0 32 0;
#X connect 30 0 31 0;
#X connect 31 0 27 0;
