#N canvas -7 384 681 332 12;
#X declare -lib Gem;
#X obj 51 78 loadbang;
#X obj 131 235 /;
#X floatatom 131 259 5 0 0 0 - - - 0;
#X obj 131 282 s 4th_time;
#X obj 149 77 loadbang;
#X floatatom 152 132 5 0 0 0 - - - 0;
#X obj 316 53 tgl 19 0 empty empty empty 0 -10 0 12 #fcfcfc #000000 #000000 0 1;
#X obj 316 100 s ON;
#X obj 56 391 r ON;
#X obj 56 439 tgl 19 0 empty empty empty 0 -10 0 12 #fcfcfc #000000 #000000 0 1;
#X obj 56 463 metro;
#X obj 56 505 bng 19 250 50 0 empty empty empty 0 -10 0 12 #fcfcfc #000000 #000000;
#X obj 56 529 s 2_Measures;
#X obj 128 392 r 4th_time;
#X obj 128 416 * 8;
#X obj 128 486 send 2_Measures_Time;
#X text 78 358 clock mul;
#X text 115 50 bpm;
#N canvas -23 79 827 621 bassclock 0;
#X obj 231 126 loadbang;
#X obj 276 186 bng 19 250 50 0 empty empty empty 0 -10 0 12 #fcfcfc #000000 #000000;
#X msg 276 210 -1;
#X obj 400 297 int 1;
#X floatatom 400 333 5 0 0 0 - - - 0;
#X obj 400 368 % 8;
#X obj 400 392 + 1;
#X floatatom 400 416 5 0 0 0 - - - 0;
#X obj 400 489 sel 1;
#X obj 400 513 bng 19 250 50 0 empty empty empty 0 -10 0 12 #fcfcfc #000000 #000000;
#X obj 400 537 s One;
#X obj 471 514 bng 19 250 50 0 empty empty empty 0 -10 0 12 #fcfcfc #000000 #000000;
#X obj 541 513 bng 19 250 50 0 empty empty empty 0 -10 0 12 #fcfcfc #000000 #000000;
#X obj 612 513 bng 19 250 50 0 empty empty empty 0 -10 0 12 #fcfcfc #000000 #000000;
#X obj 681 514 bng 19 250 50 0 empty empty empty 0 -10 0 12 #fcfcfc #000000 #000000;
#X obj 748 512 bng 19 250 50 0 empty empty empty 0 -10 0 12 #fcfcfc #000000 #000000;
#X obj 824 514 bng 19 250 50 0 empty empty empty 0 -10 0 12 #fcfcfc #000000 #000000;
#X obj 896 515 bng 19 250 50 0 empty empty empty 0 -10 0 12 #fcfcfc #000000 #000000;
#X obj 471 538 s Two;
#X obj 541 537 s Three;
#X obj 612 537 s Four;
#X obj 681 538 s Five;
#X obj 748 536 s Six;
#X obj 824 538 s Seven;
#X obj 896 539 s Eight;
#X obj 471 490 sel 2;
#X obj 541 489 sel 3;
#X obj 612 489 sel 4;
#X obj 681 490 sel 5;
#X obj 748 488 sel 6;
#X obj 824 490 sel 7;
#X obj 896 491 sel 8;
#X obj 476 351 + 1;
#X obj 367 56 r ON;
#X obj 399 120 tgl 19 0 empty empty empty 0 -10 0 12 #fcfcfc #000000 #000000 0 1;
#X obj 399 164 metro;
#X obj 399 188 bng 19 250 50 0 empty empty empty 0 -10 0 12 #fcfcfc #000000 #000000;
#X obj 441 56 r 4th_time;
#X obj 441 80 / 2;
#X floatatom 441 104 5 0 0 0 - - - 0;
#X obj 333 157 sel 0;
#X obj 93 442 % 8;
#X obj 93 466 + 1;
#X floatatom 93 490 5 0 0 0 - - - 0;
#X obj 93 513 sel 1;
#X obj 93 537 bng 19 250 50 0 empty empty empty 0 -10 0 12 #fcfcfc #000000 #000000;
#X obj 93 561 s Whole_Note;
#X obj 231 466 + 1;
#X floatatom 231 490 5 0 0 0 - - - 0;
#X obj 231 513 sel 1;
#X obj 231 537 bng 19 250 50 0 empty empty empty 0 -10 0 12 #fcfcfc #000000 #000000;
#X obj 231 442 % 32;
#X obj 231 561 s New_Pattern;
#X connect 0 0 1 0;
#X connect 1 0 2 0;
#X connect 2 0 3 0;
#X connect 3 0 4 0;
#X connect 3 0 32 0;
#X connect 4 0 5 0;
#X connect 4 0 41 0;
#X connect 4 0 51 0;
#X connect 5 0 6 0;
#X connect 6 0 7 0;
#X connect 7 0 8 0;
#X connect 7 0 25 0;
#X connect 7 0 26 0;
#X connect 7 0 27 0;
#X connect 7 0 28 0;
#X connect 7 0 29 0;
#X connect 7 0 30 0;
#X connect 7 0 31 0;
#X connect 8 0 9 0;
#X connect 9 0 10 0;
#X connect 11 0 18 0;
#X connect 12 0 19 0;
#X connect 13 0 20 0;
#X connect 14 0 21 0;
#X connect 15 0 22 0;
#X connect 16 0 23 0;
#X connect 17 0 24 0;
#X connect 25 0 11 0;
#X connect 26 0 12 0;
#X connect 27 0 13 0;
#X connect 28 0 14 0;
#X connect 29 0 15 0;
#X connect 30 0 16 0;
#X connect 31 0 17 0;
#X connect 32 0 3 1;
#X connect 33 0 34 0;
#X connect 34 0 35 0;
#X connect 34 0 40 0;
#X connect 35 0 36 0;
#X connect 36 0 3 0;
#X connect 37 0 38 0;
#X connect 38 0 39 0;
#X connect 39 0 35 1;
#X connect 40 0 1 0;
#X connect 41 0 42 0;
#X connect 42 0 43 0;
#X connect 43 0 44 0;
#X connect 44 0 45 0;
#X connect 45 0 46 0;
#X connect 47 0 48 0;
#X connect 48 0 49 0;
#X connect 49 0 50 0;
#X connect 50 0 52 0;
#X connect 51 0 47 0;
#X restore 369 51 pd bassclock;
#X msg 51 102 60000;
#N canvas 432 50 749 716 drumclock 0;
#X obj 71 83 loadbang;
#X obj 151 140 bng 19 250 50 0 empty empty empty 0 -10 0 12 #fcfcfc #000000 #000000;
#X msg 151 164 -1;
#X obj 238 227 int 1;
#X floatatom 238 283 5 0 0 0 - - - 0;
#X obj 238 306 % 16;
#X obj 238 330 + 1;
#X floatatom 238 354 5 0 0 0 - - - 0;
#X obj 238 396 sel 1 2 3 4 5 6 7 8 9 10 11 12 13 14 15 16;
#X obj 154 84 sel 0;
#X obj 233 11 r ON;
#X obj 233 44 tgl 19 0 empty empty empty 0 -10 0 12 #fcfcfc #000000 #000000 0 1;
#X obj 236 130 metro;
#X obj 236 154 bng 19 250 50 0 empty empty empty 0 -10 0 12 #fcfcfc #000000 #000000;
#X obj 317 12 r 4th_time;
#X obj 317 36 / 4;
#X floatatom 317 60 5 0 0 0 - - - 0;
#X obj 318 267 + 1;
#X obj 241 514 bng 19 250 50 0 empty empty empty 0 -10 0 12 #fcfcfc #000000 #000000;
#X obj 305 514 bng 19 250 50 0 empty empty empty 0 -10 0 12 #fcfcfc #000000 #000000;
#X obj 368 515 bng 19 250 50 0 empty empty empty 0 -10 0 12 #fcfcfc #000000 #000000;
#X obj 434 515 bng 19 250 50 0 empty empty empty 0 -10 0 12 #fcfcfc #000000 #000000;
#X obj 178 512 bng 19 250 50 0 empty empty empty 0 -10 0 12 #fcfcfc #000000 #000000;
#X obj 113 512 bng 19 250 50 0 empty empty empty 0 -10 0 12 #fcfcfc #000000 #000000;
#X obj 42 512 bng 19 250 50 0 empty empty empty 0 -10 0 12 #fcfcfc #000000 #000000;
#X obj 42 536 s 1/16;
#X obj 500 515 bng 19 250 50 0 empty empty empty 0 -10 0 12 #fcfcfc #000000 #000000;
#X obj 566 513 bng 19 250 50 0 empty empty empty 0 -10 0 12 #fcfcfc #000000 #000000;
#X obj 623 513 bng 19 250 50 0 empty empty empty 0 -10 0 12 #fcfcfc #000000 #000000;
#X obj 693 517 bng 19 250 50 0 empty empty empty 0 -10 0 12 #fcfcfc #000000 #000000;
#X obj 763 514 bng 19 250 50 0 empty empty empty 0 -10 0 12 #fcfcfc #000000 #000000;
#X obj 828 515 bng 19 250 50 0 empty empty empty 0 -10 0 12 #fcfcfc #000000 #000000;
#X obj 889 516 bng 19 250 50 0 empty empty empty 0 -10 0 12 #fcfcfc #000000 #000000;
#X obj 956 520 bng 19 250 50 0 empty empty empty 0 -10 0 12 #fcfcfc #000000 #000000;
#X obj 113 536 s 2/16;
#X obj 178 536 s 3/16;
#X obj 241 538 s 4/16;
#X obj 305 538 s 5/16;
#X obj 368 539 s 6/16;
#X obj 434 539 s 7/16;
#X obj 500 539 s 8/16;
#X obj 566 537 s 9/16;
#X obj 623 537 s 10/16;
#X obj 693 541 s 11/16;
#X obj 767 541 s 12/16;
#X obj 828 539 s 13/16;
#X obj 889 540 s 14/16;
#X obj 956 544 s 15/16;
#X obj 1029 515 bng 19 250 50 0 empty empty empty 0 -10 0 12 #fcfcfc #000000 #000000;
#X obj 1029 539 s 16/16;
#X obj 87 407 s 16th_bang;
#X obj 85 374 bng 19 250 50 0 empty empty empty 0 -10 0 12 #fcfcfc #000000 #000000;
#X connect 0 0 1 0;
#X connect 1 0 2 0;
#X connect 2 0 3 0;
#X connect 3 0 4 0;
#X connect 3 0 17 0;
#X connect 4 0 5 0;
#X connect 5 0 6 0;
#X connect 6 0 7 0;
#X connect 7 0 8 0;
#X connect 7 0 51 0;
#X connect 8 0 24 0;
#X connect 8 1 23 0;
#X connect 8 2 22 0;
#X connect 8 3 18 0;
#X connect 8 4 19 0;
#X connect 8 5 20 0;
#X connect 8 6 21 0;
#X connect 8 7 26 0;
#X connect 8 8 27 0;
#X connect 8 9 28 0;
#X connect 8 10 29 0;
#X connect 8 11 30 0;
#X connect 8 12 31 0;
#X connect 8 13 32 0;
#X connect 8 14 33 0;
#X connect 8 15 48 0;
#X connect 9 0 1 0;
#X connect 10 0 11 0;
#X connect 11 0 12 0;
#X connect 11 0 9 0;
#X connect 12 0 13 0;
#X connect 13 0 3 0;
#X connect 14 0 15 0;
#X connect 15 0 16 0;
#X connect 16 0 12 1;
#X connect 17 0 3 1;
#X connect 18 0 36 0;
#X connect 19 0 37 0;
#X connect 20 0 38 0;
#X connect 21 0 39 0;
#X connect 22 0 35 0;
#X connect 23 0 34 0;
#X connect 24 0 25 0;
#X connect 26 0 40 0;
#X connect 27 0 41 0;
#X connect 28 0 42 0;
#X connect 29 0 43 0;
#X connect 30 0 44 0;
#X connect 31 0 45 0;
#X connect 32 0 46 0;
#X connect 33 0 47 0;
#X connect 48 0 49 0;
#X connect 51 0 50 0;
#X restore 369 83 pd drumclock;
#N canvas 37 115 601 582 bass_sequencer 0;
#X obj 78 87 receive One;
#X obj 78 173 bng 19 250 50 0 empty empty empty 0 -10 0 12 #fcfcfc #000000 #000000;
#X obj 78 207 spigot;
#X obj 78 231 bng 19 250 50 0 empty empty empty 0 -10 0 12 #fcfcfc #000000 #000000;
#X msg 78 315 40;
#X obj 78 339 s Bass_Freq;
#X obj 118 173 tgl 19 0 empty empty empty 0 -10 0 12 #fcfcfc #000000 #000000 0 1;
#X obj 196 35 r New_Pattern;
#X obj 196 59 bng 19 250 50 0 empty empty empty 0 -10 0 12 #fcfcfc #000000 #000000;
#X obj 196 83 random 100;
#X floatatom 196 107 5 0 0 0 - - - 0;
#X obj 196 130 < 100;
#X obj 207 183 loadbang;
#X msg 207 207 set 40;
#X obj 318 178 bng 19 250 50 0 empty empty empty 0 -10 0 12 #fcfcfc #000000 #000000;
#X obj 318 212 spigot;
#X obj 318 236 bng 19 250 50 0 empty empty empty 0 -10 0 12 #fcfcfc #000000 #000000;
#X msg 318 320 43;
#X obj 318 344 s Bass_Freq;
#X obj 358 178 tgl 19 0 empty empty empty 0 -10 0 12 #fcfcfc #000000 #000000 0 1;
#X obj 436 40 r New_Pattern;
#X obj 436 64 bng 19 250 50 0 empty empty empty 0 -10 0 12 #fcfcfc #000000 #000000;
#X obj 436 88 random 100;
#X floatatom 436 112 5 0 0 0 - - - 0;
#X obj 319 92 receive Two;
#X obj 416 205 r New_Pattern;
#X obj 415 253 Bass_Note;
#X obj 551 177 bng 19 250 50 0 empty empty empty 0 -10 0 12 #fcfcfc #000000 #000000;
#X obj 551 211 spigot;
#X obj 551 235 bng 19 250 50 0 empty empty empty 0 -10 0 12 #fcfcfc #000000 #000000;
#X msg 551 319 43;
#X obj 551 343 s Bass_Freq;
#X obj 591 177 tgl 19 0 empty empty empty 0 -10 0 12 #fcfcfc #000000 #000000 0 1;
#X obj 669 39 r New_Pattern;
#X obj 669 63 bng 19 250 50 0 empty empty empty 0 -10 0 12 #fcfcfc #000000 #000000;
#X obj 669 87 random 100;
#X floatatom 669 111 5 0 0 0 - - - 0;
#X obj 649 204 r New_Pattern;
#X obj 648 252 Bass_Note;
#X obj 436 135 < 90;
#X obj 669 134 < 85;
#X obj 552 91 receive Three;
#X obj 801 190 bng 19 250 50 0 empty empty empty 0 -10 0 12 #fcfcfc #000000 #000000;
#X obj 801 224 spigot;
#X obj 801 248 bng 19 250 50 0 empty empty empty 0 -10 0 12 #fcfcfc #000000 #000000;
#X msg 801 332 41;
#X obj 801 356 s Bass_Freq;
#X obj 841 190 tgl 19 0 empty empty empty 0 -10 0 12 #fcfcfc #000000 #000000 0 1;
#X obj 919 52 r New_Pattern;
#X obj 919 76 bng 19 250 50 0 empty empty empty 0 -10 0 12 #fcfcfc #000000 #000000;
#X obj 919 100 random 100;
#X floatatom 919 124 5 0 0 0 - - - 0;
#X obj 899 217 r New_Pattern;
#X obj 898 265 Bass_Note;
#X obj 1043 198 bng 19 250 50 0 empty empty empty 0 -10 0 12 #fcfcfc #000000 #000000;
#X obj 1043 232 spigot;
#X obj 1043 256 bng 19 250 50 0 empty empty empty 0 -10 0 12 #fcfcfc #000000 #000000;
#X msg 1043 340 41;
#X obj 1043 364 s Bass_Freq;
#X obj 1083 198 tgl 19 0 empty empty empty 0 -10 0 12 #fcfcfc #000000 #000000 0 1;
#X obj 1161 60 r New_Pattern;
#X obj 1161 84 bng 19 250 50 0 empty empty empty 0 -10 0 12 #fcfcfc #000000 #000000;
#X obj 1161 108 random 100;
#X floatatom 1161 132 5 0 0 0 - - - 0;
#X obj 1141 225 r New_Pattern;
#X obj 1140 273 Bass_Note;
#X obj 1161 155 < 90;
#X obj 1295 219 bng 19 250 50 0 empty empty empty 0 -10 0 12 #fcfcfc #000000 #000000;
#X obj 1295 253 spigot;
#X obj 1295 277 bng 19 250 50 0 empty empty empty 0 -10 0 12 #fcfcfc #000000 #000000;
#X msg 1295 361 41;
#X obj 1295 385 s Bass_Freq;
#X obj 1335 219 tgl 19 0 empty empty empty 0 -10 0 12 #fcfcfc #000000 #000000 0 1;
#X obj 1413 81 r New_Pattern;
#X obj 1413 105 bng 19 250 50 0 empty empty empty 0 -10 0 12 #fcfcfc #000000 #000000;
#X obj 1413 129 random 100;
#X floatatom 1413 153 5 0 0 0 - - - 0;
#X obj 1393 246 r New_Pattern;
#X obj 1392 294 Bass_Note;
#X obj 1540 213 bng 19 250 50 0 empty empty empty 0 -10 0 12 #fcfcfc #000000 #000000;
#X obj 1540 247 spigot;
#X obj 1540 271 bng 19 250 50 0 empty empty empty 0 -10 0 12 #fcfcfc #000000 #000000;
#X msg 1540 355 47;
#X obj 1540 379 s Bass_Freq;
#X obj 1580 213 tgl 19 0 empty empty empty 0 -10 0 12 #fcfcfc #000000 #000000 0 1;
#X obj 1658 75 r New_Pattern;
#X obj 1658 99 bng 19 250 50 0 empty empty empty 0 -10 0 12 #fcfcfc #000000 #000000;
#X obj 1658 123 random 100;
#X floatatom 1658 147 5 0 0 0 - - - 0;
#X obj 1638 240 r New_Pattern;
#X obj 1637 288 Bass_Note;
#X obj 1808 227 bng 19 250 50 0 empty empty empty 0 -10 0 12 #fcfcfc #000000 #000000;
#X obj 1808 261 spigot;
#X obj 1808 285 bng 19 250 50 0 empty empty empty 0 -10 0 12 #fcfcfc #000000 #000000;
#X msg 1808 369 52;
#X obj 1808 393 s Bass_Freq;
#X obj 1848 227 tgl 19 0 empty empty empty 0 -10 0 12 #fcfcfc #000000 #000000 0 1;
#X obj 1926 89 r New_Pattern;
#X obj 1926 113 bng 19 250 50 0 empty empty empty 0 -10 0 12 #fcfcfc #000000 #000000;
#X obj 1926 137 random 100;
#X floatatom 1926 161 5 0 0 0 - - - 0;
#X obj 1906 254 r New_Pattern;
#X obj 1905 302 Bass_Note;
#X obj 1926 184 < 90;
#X obj 802 104 receive Four;
#X obj 919 147 < 75;
#X obj 1044 112 receive Five;
#X obj 1413 176 < 85;
#X obj 1296 133 receive Six;
#X obj 1541 127 receive Seven;
#X obj 1658 170 < 75;
#X obj 1809 141 receive Eight;
#X obj 255 429 r Bass_Freq;
#X floatatom 255 467 5 0 0 0 - - - 0;
#X obj 255 503 Ac_Bass;
#X obj 255 538 send~ Bass;
#X connect 0 0 1 0;
#X connect 1 0 2 0;
#X connect 2 0 3 0;
#X connect 3 0 4 0;
#X connect 4 0 5 0;
#X connect 6 0 2 1;
#X connect 7 0 8 0;
#X connect 8 0 9 0;
#X connect 9 0 10 0;
#X connect 10 0 11 0;
#X connect 11 0 6 0;
#X connect 12 0 13 0;
#X connect 13 0 4 0;
#X connect 14 0 15 0;
#X connect 15 0 16 0;
#X connect 16 0 17 0;
#X connect 17 0 18 0;
#X connect 19 0 15 1;
#X connect 20 0 21 0;
#X connect 21 0 22 0;
#X connect 22 0 23 0;
#X connect 23 0 39 0;
#X connect 24 0 14 0;
#X connect 25 0 26 0;
#X connect 26 0 17 0;
#X connect 27 0 28 0;
#X connect 28 0 29 0;
#X connect 29 0 30 0;
#X connect 30 0 31 0;
#X connect 32 0 28 1;
#X connect 33 0 34 0;
#X connect 34 0 35 0;
#X connect 35 0 36 0;
#X connect 36 0 40 0;
#X connect 37 0 38 0;
#X connect 38 0 30 0;
#X connect 39 0 19 0;
#X connect 40 0 32 0;
#X connect 41 0 27 0;
#X connect 42 0 43 0;
#X connect 43 0 44 0;
#X connect 44 0 45 0;
#X connect 45 0 46 0;
#X connect 47 0 43 1;
#X connect 48 0 49 0;
#X connect 49 0 50 0;
#X connect 50 0 51 0;
#X connect 51 0 105 0;
#X connect 52 0 53 0;
#X connect 53 0 45 0;
#X connect 54 0 55 0;
#X connect 55 0 56 0;
#X connect 56 0 57 0;
#X connect 57 0 58 0;
#X connect 59 0 55 1;
#X connect 60 0 61 0;
#X connect 61 0 62 0;
#X connect 62 0 63 0;
#X connect 63 0 66 0;
#X connect 64 0 65 0;
#X connect 65 0 57 0;
#X connect 66 0 59 0;
#X connect 67 0 68 0;
#X connect 68 0 69 0;
#X connect 69 0 70 0;
#X connect 70 0 71 0;
#X connect 72 0 68 1;
#X connect 73 0 74 0;
#X connect 74 0 75 0;
#X connect 75 0 76 0;
#X connect 76 0 107 0;
#X connect 77 0 78 0;
#X connect 78 0 70 0;
#X connect 79 0 80 0;
#X connect 80 0 81 0;
#X connect 81 0 82 0;
#X connect 82 0 83 0;
#X connect 84 0 80 1;
#X connect 85 0 86 0;
#X connect 86 0 87 0;
#X connect 87 0 88 0;
#X connect 88 0 110 0;
#X connect 89 0 90 0;
#X connect 90 0 82 0;
#X connect 91 0 92 0;
#X connect 92 0 93 0;
#X connect 93 0 94 0;
#X connect 94 0 95 0;
#X connect 96 0 92 1;
#X connect 97 0 98 0;
#X connect 98 0 99 0;
#X connect 99 0 100 0;
#X connect 100 0 103 0;
#X connect 101 0 102 0;
#X connect 103 0 96 0;
#X connect 104 0 42 0;
#X connect 105 0 47 0;
#X connect 106 0 54 0;
#X connect 107 0 72 0;
#X connect 108 0 67 0;
#X connect 109 0 79 0;
#X connect 110 0 84 0;
#X connect 111 0 91 0;
#X connect 112 0 113 0;
#X connect 113 0 114 0;
#X connect 114 0 115 0;
#X restore 474 52 pd bass_sequencer;
#N canvas 1363 0 1366 725 drum_sequencer 0;
#X obj 47 83 r 1/16;
#X obj 47 107 bng 19 250 50 0 empty empty empty 0 -10 0 12 #fcfcfc #000000 #000000;
#X msg 47 168 0;
#X obj 47 204 s Drum_Note;
#X obj 127 82 loadbang;
#X obj 199 105 bng 19 250 50 0 empty empty empty 0 -10 0 12 #fcfcfc #000000 #000000;
#X msg 199 166 3;
#X obj 199 202 s Drum_Note;
#X obj 199 81 r 2/16;
#X obj 294 36 r New_Pattern;
#X obj 294 60 bng 19 250 50 0 empty empty empty 0 -10 0 12 #fcfcfc #000000 #000000;
#X obj 294 84 random 5;
#X msg 294 108 set \$1;
#X obj 376 108 bng 19 250 50 0 empty empty empty 0 -10 0 12 #fcfcfc #000000 #000000;
#X msg 376 169 0;
#X obj 376 205 s Drum_Note;
#X obj 456 83 loadbang;
#X obj 376 84 r 3/16;
#X msg 127 106 set 0;
#X msg 456 107 set 0;
#X obj 527 104 bng 19 250 50 0 empty empty empty 0 -10 0 12 #fcfcfc #000000 #000000;
#X msg 527 165 1;
#X obj 527 201 s Drum_Note;
#X obj 622 35 r New_Pattern;
#X obj 622 59 bng 19 250 50 0 empty empty empty 0 -10 0 12 #fcfcfc #000000 #000000;
#X obj 622 83 random 5;
#X msg 622 107 set \$1;
#X obj 694 105 bng 19 250 50 0 empty empty empty 0 -10 0 12 #fcfcfc #000000 #000000;
#X msg 694 166 4;
#X obj 694 202 s Drum_Note;
#X obj 789 36 r New_Pattern;
#X obj 789 60 bng 19 250 50 0 empty empty empty 0 -10 0 12 #fcfcfc #000000 #000000;
#X obj 789 84 random 5;
#X msg 789 108 set \$1;
#X obj 866 108 bng 19 250 50 0 empty empty empty 0 -10 0 12 #fcfcfc #000000 #000000;
#X msg 866 169 4;
#X obj 866 205 s Drum_Note;
#X obj 961 39 r New_Pattern;
#X obj 961 63 bng 19 250 50 0 empty empty empty 0 -10 0 12 #fcfcfc #000000 #000000;
#X obj 961 87 random 5;
#X msg 961 111 set \$1;
#X obj 527 80 r 4/16;
#X obj 694 81 r 5/16;
#X obj 866 84 r 6/16;
#X obj 1043 113 bng 19 250 50 0 empty empty empty 0 -10 0 12 #fcfcfc #000000 #000000;
#X msg 1043 174 2;
#X obj 1043 210 s Drum_Note;
#X obj 1138 44 r New_Pattern;
#X obj 1138 68 bng 19 250 50 0 empty empty empty 0 -10 0 12 #fcfcfc #000000 #000000;
#X obj 1138 92 random 5;
#X msg 1138 116 set \$1;
#X obj 1043 89 r 7/16;
#X obj 1222 112 bng 19 250 50 0 empty empty empty 0 -10 0 12 #fcfcfc #000000 #000000;
#X msg 1222 173 4;
#X obj 1222 209 s Drum_Note;
#X obj 1317 43 r New_Pattern;
#X obj 1317 67 bng 19 250 50 0 empty empty empty 0 -10 0 12 #fcfcfc #000000 #000000;
#X obj 1317 91 random 5;
#X msg 1317 115 set \$1;
#X obj 1222 88 r 8/16;
#X obj 38 328 bng 19 250 50 0 empty empty empty 0 -10 0 12 #fcfcfc #000000 #000000;
#X msg 38 389 0;
#X obj 38 425 s Drum_Note;
#X obj 133 259 r New_Pattern;
#X obj 133 283 bng 19 250 50 0 empty empty empty 0 -10 0 12 #fcfcfc #000000 #000000;
#X obj 133 307 random 5;
#X msg 133 331 set \$1;
#X obj 213 332 bng 19 250 50 0 empty empty empty 0 -10 0 12 #fcfcfc #000000 #000000;
#X msg 213 393 1;
#X obj 213 429 s Drum_Note;
#X obj 308 263 r New_Pattern;
#X obj 308 287 bng 19 250 50 0 empty empty empty 0 -10 0 12 #fcfcfc #000000 #000000;
#X obj 308 311 random 5;
#X msg 308 335 set \$1;
#X obj 387 334 bng 19 250 50 0 empty empty empty 0 -10 0 12 #fcfcfc #000000 #000000;
#X msg 387 395 0;
#X obj 387 431 s Drum_Note;
#X obj 482 265 r New_Pattern;
#X obj 482 289 bng 19 250 50 0 empty empty empty 0 -10 0 12 #fcfcfc #000000 #000000;
#X obj 482 313 random 5;
#X msg 482 337 set \$1;
#X obj 570 332 bng 19 250 50 0 empty empty empty 0 -10 0 12 #fcfcfc #000000 #000000;
#X msg 570 393 0;
#X obj 570 429 s Drum_Note;
#X obj 665 263 r New_Pattern;
#X obj 665 287 bng 19 250 50 0 empty empty empty 0 -10 0 12 #fcfcfc #000000 #000000;
#X obj 665 311 random 5;
#X msg 665 335 set \$1;
#X obj 760 334 bng 19 250 50 0 empty empty empty 0 -10 0 12 #fcfcfc #000000 #000000;
#X msg 760 395 0;
#X obj 760 431 s Drum_Note;
#X obj 855 265 r New_Pattern;
#X obj 855 289 bng 19 250 50 0 empty empty empty 0 -10 0 12 #fcfcfc #000000 #000000;
#X obj 855 313 random 5;
#X msg 855 337 set \$1;
#X obj 936 336 bng 19 250 50 0 empty empty empty 0 -10 0 12 #fcfcfc #000000 #000000;
#X msg 936 397 2;
#X obj 936 433 s Drum_Note;
#X obj 1031 267 r New_Pattern;
#X obj 1031 291 bng 19 250 50 0 empty empty empty 0 -10 0 12 #fcfcfc #000000 #000000;
#X obj 1031 315 random 5;
#X msg 1031 339 set \$1;
#X obj 1110 338 bng 19 250 50 0 empty empty empty 0 -10 0 12 #fcfcfc #000000 #000000;
#X msg 1110 399 3;
#X obj 1110 435 s Drum_Note;
#X obj 1205 269 r New_Pattern;
#X obj 1205 293 bng 19 250 50 0 empty empty empty 0 -10 0 12 #fcfcfc #000000 #000000;
#X obj 1205 317 random 5;
#X msg 1205 341 set \$1;
#X obj 1285 335 bng 19 250 50 0 empty empty empty 0 -10 0 12 #fcfcfc #000000 #000000;
#X msg 1285 396 4;
#X obj 1285 432 s Drum_Note;
#X obj 1380 266 r New_Pattern;
#X obj 1380 290 bng 19 250 50 0 empty empty empty 0 -10 0 12 #fcfcfc #000000 #000000;
#X obj 1380 314 random 5;
#X msg 1380 338 set \$1;
#X obj 38 304 r 9/16;
#X obj 213 308 r 10/16;
#X obj 387 310 r 11/16;
#X obj 570 308 r 12/16;
#X obj 760 310 r 13/16;
#X obj 937 312 r 14/16;
#X obj 1110 314 r 15/16;
#X obj 1285 311 r 16/16;
#X obj 610 541 r Drum_Note;
#X floatatom 610 565 5 0 0 0 - - - 0;
#X obj 610 588 Drum_Samples;
#X obj 610 612 send~ Drums;
#X connect 0 0 1 0;
#X connect 1 0 2 0;
#X connect 2 0 3 0;
#X connect 4 0 18 0;
#X connect 5 0 6 0;
#X connect 6 0 7 0;
#X connect 8 0 5 0;
#X connect 9 0 10 0;
#X connect 10 0 11 0;
#X connect 11 0 12 0;
#X connect 12 0 6 0;
#X connect 13 0 14 0;
#X connect 14 0 15 0;
#X connect 16 0 19 0;
#X connect 17 0 13 0;
#X connect 18 0 2 0;
#X connect 19 0 14 0;
#X connect 20 0 21 0;
#X connect 21 0 22 0;
#X connect 23 0 24 0;
#X connect 24 0 25 0;
#X connect 25 0 26 0;
#X connect 26 0 21 0;
#X connect 27 0 28 0;
#X connect 28 0 29 0;
#X connect 30 0 31 0;
#X connect 31 0 32 0;
#X connect 32 0 33 0;
#X connect 33 0 28 0;
#X connect 34 0 35 0;
#X connect 35 0 36 0;
#X connect 37 0 38 0;
#X connect 38 0 39 0;
#X connect 39 0 40 0;
#X connect 40 0 35 0;
#X connect 41 0 20 0;
#X connect 42 0 27 0;
#X connect 43 0 34 0;
#X connect 44 0 45 0;
#X connect 45 0 46 0;
#X connect 47 0 48 0;
#X connect 48 0 49 0;
#X connect 49 0 50 0;
#X connect 50 0 45 0;
#X connect 51 0 44 0;
#X connect 52 0 53 0;
#X connect 53 0 54 0;
#X connect 55 0 56 0;
#X connect 56 0 57 0;
#X connect 57 0 58 0;
#X connect 58 0 53 0;
#X connect 59 0 52 0;
#X connect 60 0 61 0;
#X connect 61 0 62 0;
#X connect 63 0 64 0;
#X connect 64 0 65 0;
#X connect 65 0 66 0;
#X connect 66 0 61 0;
#X connect 67 0 68 0;
#X connect 68 0 69 0;
#X connect 70 0 71 0;
#X connect 71 0 72 0;
#X connect 72 0 73 0;
#X connect 73 0 68 0;
#X connect 74 0 75 0;
#X connect 75 0 76 0;
#X connect 77 0 78 0;
#X connect 78 0 79 0;
#X connect 79 0 80 0;
#X connect 80 0 75 0;
#X connect 81 0 82 0;
#X connect 82 0 83 0;
#X connect 84 0 85 0;
#X connect 85 0 86 0;
#X connect 86 0 87 0;
#X connect 87 0 82 0;
#X connect 88 0 89 0;
#X connect 89 0 90 0;
#X connect 91 0 92 0;
#X connect 92 0 93 0;
#X connect 93 0 94 0;
#X connect 94 0 89 0;
#X connect 95 0 96 0;
#X connect 96 0 97 0;
#X connect 98 0 99 0;
#X connect 99 0 100 0;
#X connect 100 0 101 0;
#X connect 101 0 96 0;
#X connect 102 0 103 0;
#X connect 103 0 104 0;
#X connect 105 0 106 0;
#X connect 106 0 107 0;
#X connect 107 0 108 0;
#X connect 108 0 103 0;
#X connect 109 0 110 0;
#X connect 110 0 111 0;
#X connect 112 0 113 0;
#X connect 113 0 114 0;
#X connect 114 0 115 0;
#X connect 115 0 110 0;
#X connect 116 0 60 0;
#X connect 117 0 67 0;
#X connect 118 0 74 0;
#X connect 119 0 81 0;
#X connect 120 0 88 0;
#X connect 121 0 95 0;
#X connect 122 0 102 0;
#X connect 123 0 109 0;
#X connect 124 0 125 0;
#X connect 125 0 126 0;
#X connect 126 0 127 0;
#X restore 474 81 pd drum_sequencer;
#N canvas 382 127 845 397 ambient 0;
#X obj 159 20 r 2_Measures;
#X obj 160 88 bng 19 250 50 0 empty empty empty 0 -10 0 12 #fcfcfc #000000 #000000;
#X obj 160 112 Scales;
#X floatatom 160 136 5 0 0 0 - - - 0;
#X obj 173 359 *~;
#X obj 167 235 phasor~;
#X obj 249 231 phasor~;
#X floatatom 248 194 5 0 0 0 - - - 0;
#X obj 376 86 bng 19 250 50 0 empty empty empty 0 -10 0 12 #fcfcfc #000000 #000000;
#X obj 375 300 line;
#X obj 458 166 delay;
#X msg 459 230 0 500;
#X obj 552 58 receive 2_Measures_Time;
#X floatatom 552 82 5 0 0 0 - - - 0;
#X obj 552 105 - 500;
#X obj 643 116 receive ON;
#X obj 643 140 sel 0;
#X obj 643 164 delay 5;
#X obj 173 383 *~ 0.5;
#X obj 248 170 * 1.001;
#X obj 173 315 lop~ 100;
#X obj 173 407 send~ Ambient;
#X msg 376 193 1 200;
#X obj 90 171 / 2;
#X floatatom 90 201 5 0 0 0 - - - 0;
#X obj 92 234 phasor~;
#X connect 0 0 1 0;
#X connect 0 0 8 0;
#X connect 1 0 2 0;
#X connect 2 0 3 0;
#X connect 3 0 5 0;
#X connect 3 0 19 0;
#X connect 3 0 23 0;
#X connect 4 0 18 0;
#X connect 5 0 20 0;
#X connect 6 0 20 0;
#X connect 7 0 6 0;
#X connect 8 0 22 0;
#X connect 8 0 10 0;
#X connect 9 0 4 1;
#X connect 10 0 11 0;
#X connect 11 0 9 0;
#X connect 12 0 13 0;
#X connect 13 0 14 0;
#X connect 14 0 10 1;
#X connect 15 0 16 0;
#X connect 16 0 17 0;
#X connect 17 0 11 0;
#X connect 18 0 21 0;
#X connect 19 0 7 0;
#X connect 20 0 4 0;
#X connect 22 0 9 0;
#X connect 23 0 24 0;
#X connect 24 0 25 0;
#X connect 25 0 20 0;
#X restore 475 108 pd ambient;
#N canvas 676 0 681 716 crash 0;
#X obj 186 19 r Whole_Note;
#X obj 186 43 bng 19 250 50 0 empty empty empty 0 -10 0 12 #fcfcfc #000000 #000000;
#X obj 186 91 readsf~;
#X obj 186 115 send~ Crash;
#X msg 186 67 open ./samples/MA-Fizz-Cymbal.wav \, 1;
#X connect 0 0 1 0;
#X connect 1 0 4 0;
#X connect 2 0 3 0;
#X connect 4 0 2 0;
#X restore 476 134 pd crash;
#X obj 147 175 t b f;
#X msg 313 155 \; pd dsp 1;
#X msg 149 101 160;
#X obj 464 336 key;
#X floatatom 464 360 5 0 0 0 - - - 0;
#X obj 464 407 bng 19 250 50 0 empty empty empty 0 -10 0 12 #fcfcfc #000000 #000000;
#X obj 465 489 tgl 19 0 empty empty empty 0 -10 0 12 #fcfcfc #000000 #000000 0 1;
#X obj 465 513 s glitch_onoff;
#X obj 548 336 loadbang;
#X obj 629 337 r ON;
#X msg 548 383 0;
#X obj 320 328 r random_glitch;
#X obj 319 356 vsl 19 162 0 127 0 0 empty empty empty 0 -9 0 12 #fcfcfc #000000 #000000 0 1;
#X obj 320 522 s glitch_value;
#N canvas -7 0 681 716 glitch 0;
#X obj 20 53 r glitch_onoff;
#X obj 20 77 tgl 19 0 empty empty empty 0 -10 0 12 #fcfcfc #000000 #000000 0 1;
#X obj 20 101 sel 1;
#X msg 21 132 0 50;
#X obj 20 184 line;
#X floatatom 20 208 5 0 0 0 - - - 0;
#X msg 88 132 1 50;
#X obj 160 51 receive~ Drums;
#X obj 158 208 *~ 0.75;
#X obj 158 275 *~ 0.25;
#X obj 169 584 *~ 1;
#X obj 283 52 receive~ Crash;
#X obj 457 52 bng 19 250 50 0 empty empty empty 0 -10 0 12 #fcfcfc #000000 #000000;
#X obj 457 100 readsf~;
#X obj 203 356 r glitch_onoff;
#X obj 203 380 bng 19 250 50 0 empty empty empty 0 -10 0 12 #fcfcfc #000000 #000000;
#X obj 203 404 random 100;
#X obj 203 428 + 10;
#X obj 204 510 s rangom_glitch;
#X obj 367 408 r glitch_value;
#X floatatom 364 495 5 0 0 0 - - - 0;
#X obj 364 518 delread~ glitch 50;
#X obj 465 347 delwrite~ glitch 500;
#X obj 575 397 *~ 1;
#X obj 667 191 r glitch_onoff;
#X obj 667 215 tgl 19 0 empty empty empty 0 -10 0 12 #fcfcfc #000000 #000000 0 1;
#X obj 667 276 sel 0;
#X msg 667 330 0 50;
#X obj 667 368 line;
#X floatatom 667 392 5 0 0 0 - - - 0;
#X msg 723 332 1 50;
#X obj 787 277 sel 1;
#X obj 783 374 line;
#X floatatom 783 398 5 0 0 0 - - - 0;
#X obj 178 1003 dac~;
#X obj 361 663 receive~ Bass;
#X obj 491 662 receive~ Ambient;
#X obj 491 686 *~ 0.5;
#X obj 169 666 *~ 0.6;
#X obj 175 832 *~ 1;
#X obj 180 927 *~ 1;
#X obj 235 930 *~ 1;
#X msg 782 328 1 50;
#X msg 843 326 0 50;
#X msg 457 76 open 05.wav \, 1;
#X obj 361 583 *~ 0.25;
#X connect 0 0 1 0;
#X connect 1 0 2 0;
#X connect 2 0 3 0;
#X connect 2 1 6 0;
#X connect 3 0 4 0;
#X connect 4 0 5 0;
#X connect 5 0 9 1;
#X connect 6 0 4 0;
#X connect 7 0 8 0;
#X connect 8 0 9 0;
#X connect 9 0 10 0;
#X connect 9 0 22 0;
#X connect 10 0 38 0;
#X connect 11 0 8 0;
#X connect 12 0 44 0;
#X connect 13 0 8 0;
#X connect 14 0 15 0;
#X connect 15 0 16 0;
#X connect 16 0 17 0;
#X connect 17 0 18 0;
#X connect 17 0 20 0;
#X connect 19 0 20 0;
#X connect 20 0 21 0;
#X connect 21 0 23 0;
#X connect 21 0 45 0;
#X connect 23 0 22 0;
#X connect 24 0 25 0;
#X connect 25 0 26 0;
#X connect 25 0 31 0;
#X connect 26 0 27 0;
#X connect 26 1 30 0;
#X connect 27 0 28 0;
#X connect 28 0 29 0;
#X connect 29 0 23 1;
#X connect 30 0 28 0;
#X connect 31 0 42 0;
#X connect 31 1 43 0;
#X connect 32 0 33 0;
#X connect 33 0 45 1;
#X connect 35 0 39 0;
#X connect 36 0 37 0;
#X connect 37 0 39 0;
#X connect 38 0 39 0;
#X connect 39 0 40 0;
#X connect 39 0 41 0;
#X connect 40 0 34 0;
#X connect 41 0 34 1;
#X connect 42 0 32 0;
#X connect 43 0 32 0;
#X connect 44 0 13 0;
#X connect 45 0 10 0;
#X restore 243 591 pd glitch;
#X obj 464 383 sel 103;
#X msg 309 239 \; pd dsp 0;
#N canvas -7 0 681 332 gem 1;
#X obj 154 -442 declare -lib Gem;
#X msg 151 -366 create \, 1;
#X obj 151 -284 gemwin;
#X msg 221 -341 0 \, destroy;
#X msg 245 -311 dimen 640 480;
#X obj 466 -465 r 16th_bang;
#X obj 466 -441 bng 19 250 50 0 empty empty empty 0 -10 0 12 #fcfcfc #000000 #000000;
#X obj 432 -404 bng 19 250 50 0 empty empty empty 0 -10 0 12 #fcfcfc #000000 #000000;
#X obj 668 -409 bng 19 250 50 0 empty empty empty 0 -10 0 12 #fcfcfc #000000 #000000;
#X obj 559 -407 bng 19 250 50 0 empty empty empty 0 -10 0 12 #fcfcfc #000000 #000000;
#X obj 432 -380 random 10;
#X obj 432 -356 + 1;
#X floatatom 432 -332 5 0 0 0 - - - 0;
#X obj 432 -309 / 1;
#X obj 432 -285 * 0.1;
#X floatatom 432 -261 5 0 0 0 - - - 0;
#X obj 331 -164 colorRGB;
#X obj 333 -264 gemhead;
#X obj 558 -376 random 10;
#X obj 558 -352 + 1;
#X floatatom 558 -328 5 0 0 0 - - - 0;
#X obj 558 -305 / 1;
#X obj 558 -281 * 0.1;
#X floatatom 558 -257 5 0 0 0 - - - 0;
#X obj 665 -379 random 10;
#X obj 665 -355 + 1;
#X floatatom 665 -331 5 0 0 0 - - - 0;
#X obj 665 -308 / 1;
#X obj 665 -284 * 0.1;
#X floatatom 665 -260 5 0 0 0 - - - 0;
#X obj 331 109 scaleXYZ;
#X obj 429 -46 bng 19 250 50 0 empty empty empty 0 -10 0 12 #fcfcfc #000000 #000000;
#X msg 429 10 0.5 10;
#X obj 429 54 line;
#X floatatom 429 78 5 0 0 0 - - - 0;
#X obj 514 -20 delay 10;
#X msg 514 4 2.5 200;
#X obj 429 -161 r Drum_Note;
#X floatatom 429 -137 5 0 0 0 - - - 0;
#X obj 429 -98 sel 0;
#X obj 493 -98 sel 2;
#X obj 328 409 rotateXYZ;
#X obj 660 61 tgl 19 0 empty empty empty 0 -10 0 12 #fcfcfc #000000 #000000 0 1;
#X obj 660 85 metro 50;
#X obj 580 138 snapshot~;
#X obj 730 141 snapshot~;
#X obj 574 75 osc~ 0.25;
#X obj 731 74 osc~ 0.24;
#X obj 826 139 snapshot~;
#X obj 827 72 osc~ 0.23;
#X obj 580 162 * 360;
#X obj 730 165 * 360;
#X obj 826 163 * 360;
#X floatatom 580 186 5 0 0 0 - - - 0;
#X floatatom 730 189 5 0 0 0 - - - 0;
#X floatatom 826 187 5 0 0 0 - - - 0;
#X obj 328 499 sphere;
#X obj 210 381 loadbang;
#X msg 210 405 draw line;
#X obj 651 31 r ON;
#X obj 749 -301 r glitch_onoff;
#X obj 749 -277 tgl 19 0 empty empty empty 0 -10 0 12 #fcfcfc #000000 #000000 0 1;
#X msg 750 -222 0 50;
#X obj 749 -170 line;
#X floatatom 749 -138 5 0 0 0 - - - 0;
#X msg 817 -222 1 50;
#X obj 749 -253 sel 0;
#X obj 868 -216 r glitch_value;
#X floatatom 868 -192 5 0 0 0 - - - 0;
#X obj 748 -69 *;
#X floatatom 748 -41 5 0 0 0 - - - 0;
#X obj 868 -117 t b f;
#X obj 868 -168 / 100;
#X obj 178 544 cube;
#X obj 106 482 rotateXYZ;
#X obj -64 185 tgl 19 0 empty empty empty 0 -10 0 12 #fcfcfc #000000 #000000 0 1;
#X obj -64 209 metro 50;
#X obj -144 262 snapshot~;
#X obj 6 265 snapshot~;
#X obj 102 263 snapshot~;
#X obj -144 286 * 360;
#X obj 6 289 * 360;
#X obj 102 287 * 360;
#X floatatom -144 310 5 0 0 0 - - - 0;
#X floatatom 6 313 5 0 0 0 - - - 0;
#X floatatom 102 311 5 0 0 0 - - - 0;
#X obj -73 155 r ON;
#X obj -150 199 osc~ 2.25;
#X obj 7 198 osc~ 2.24;
#X obj 103 196 osc~ 2.23;
#X connect 1 0 2 0;
#X connect 3 0 2 0;
#X connect 4 0 2 0;
#X connect 5 0 6 0;
#X connect 6 0 7 0;
#X connect 6 0 8 0;
#X connect 6 0 9 0;
#X connect 7 0 10 0;
#X connect 8 0 24 0;
#X connect 9 0 18 0;
#X connect 10 0 11 0;
#X connect 11 0 12 0;
#X connect 12 0 13 0;
#X connect 13 0 14 0;
#X connect 14 0 15 0;
#X connect 15 0 16 1;
#X connect 16 0 30 0;
#X connect 17 0 16 0;
#X connect 18 0 19 0;
#X connect 19 0 20 0;
#X connect 20 0 21 0;
#X connect 21 0 22 0;
#X connect 22 0 23 0;
#X connect 23 0 16 2;
#X connect 24 0 25 0;
#X connect 25 0 26 0;
#X connect 26 0 27 0;
#X connect 27 0 28 0;
#X connect 28 0 29 0;
#X connect 29 0 16 3;
#X connect 30 0 41 0;
#X connect 30 0 74 0;
#X connect 31 0 32 0;
#X connect 31 0 35 0;
#X connect 32 0 33 0;
#X connect 33 0 34 0;
#X connect 34 0 30 1;
#X connect 34 0 30 2;
#X connect 34 0 30 3;
#X connect 35 0 36 0;
#X connect 36 0 33 0;
#X connect 37 0 38 0;
#X connect 38 0 39 0;
#X connect 38 0 40 0;
#X connect 39 0 31 0;
#X connect 40 0 31 0;
#X connect 41 0 56 0;
#X connect 42 0 43 0;
#X connect 43 0 44 0;
#X connect 43 0 45 0;
#X connect 43 0 48 0;
#X connect 44 0 50 0;
#X connect 45 0 51 0;
#X connect 46 0 44 0;
#X connect 47 0 45 0;
#X connect 48 0 52 0;
#X connect 49 0 48 0;
#X connect 50 0 53 0;
#X connect 51 0 54 0;
#X connect 52 0 55 0;
#X connect 53 0 41 1;
#X connect 54 0 41 2;
#X connect 55 0 41 3;
#X connect 57 0 58 0;
#X connect 58 0 56 0;
#X connect 58 0 73 0;
#X connect 59 0 42 0;
#X connect 60 0 61 0;
#X connect 61 0 66 0;
#X connect 62 0 63 0;
#X connect 63 0 64 0;
#X connect 64 0 69 0;
#X connect 65 0 63 0;
#X connect 66 0 62 0;
#X connect 66 1 65 0;
#X connect 67 0 68 0;
#X connect 68 0 72 0;
#X connect 69 0 70 0;
#X connect 70 0 47 0;
#X connect 70 0 46 0;
#X connect 71 0 69 0;
#X connect 71 1 69 1;
#X connect 72 0 71 0;
#X connect 74 0 73 0;
#X connect 75 0 76 0;
#X connect 76 0 77 0;
#X connect 76 0 78 0;
#X connect 76 0 79 0;
#X connect 77 0 80 0;
#X connect 78 0 81 0;
#X connect 79 0 82 0;
#X connect 80 0 83 0;
#X connect 81 0 84 0;
#X connect 82 0 85 0;
#X connect 83 0 74 1;
#X connect 84 0 74 2;
#X connect 85 0 74 3;
#X connect 86 0 75 0;
#X connect 87 0 77 0;
#X connect 88 0 78 0;
#X connect 89 0 79 0;
#X restore 369 594 pd gem;
#X connect 0 0 19 0;
#X connect 1 0 2 0;
#X connect 2 0 3 0;
#X connect 4 0 27 0;
#X connect 5 0 25 0;
#X connect 6 0 7 0;
#X connect 8 0 9 0;
#X connect 9 0 10 0;
#X connect 10 0 11 0;
#X connect 11 0 12 0;
#X connect 13 0 14 0;
#X connect 14 0 10 1;
#X connect 14 0 15 0;
#X connect 19 0 1 0;
#X connect 25 0 1 0;
#X connect 25 1 1 1;
#X connect 27 0 5 0;
#X connect 28 0 29 0;
#X connect 29 0 40 0;
#X connect 30 0 31 0;
#X connect 31 0 32 0;
#X connect 33 0 35 0;
#X connect 34 0 35 0;
#X connect 35 0 31 0;
#X connect 36 0 37 0;
#X connect 37 0 38 0;
#X connect 40 0 30 0;
