#N canvas 167 51 1366 725 12;
#X obj 296 16 inlet;
#X floatatom 296 40 5 0 0 0 - - - 0;
#X obj 35 105 sel 0;
#X obj 35 129 bng 19 250 50 0 empty empty empty 0 -10 0 12 #fcfcfc #000000 #000000;
#X obj 35 177 readsf~;
#X obj 295 248 *~ 0.75;
#X obj 295 272 outlet~;
#X obj 294 129 bng 19 250 50 0 empty empty empty 0 -10 0 12 #fcfcfc #000000 #000000;
#X obj 294 177 readsf~;
#X obj 489 133 bng 19 250 50 0 empty empty empty 0 -10 0 12 #fcfcfc #000000 #000000;
#X obj 489 181 readsf~;
#X obj 763 127 bng 19 250 50 0 empty empty empty 0 -10 0 12 #fcfcfc #000000 #000000;
#X obj 763 175 readsf~;
#X obj 1116 128 bng 19 250 50 0 empty empty empty 0 -10 0 12 #fcfcfc #000000 #000000;
#X obj 1116 176 readsf~;
#X obj 294 105 sel 1;
#X obj 489 109 sel 2;
#X obj 763 103 sel 3;
#X obj 1116 104 sel 4;
#X msg 1116 152 open 05.wav \, 1;
#X msg 454 155 open ./samples/HouseGen-Kick-25.wav \, 1;
#X msg 763 151 open ./samples/Attack-Hat-12.wav \, 1;
#X msg 172 154 open ./samples/Collider-Fifth-CHat-02.wav \, 1;
#X msg -140 155 open ./samples/HouseGen-Snare30.wav \, 1;
#X connect 0 0 1 0;
#X connect 1 0 2 0;
#X connect 1 0 15 0;
#X connect 1 0 16 0;
#X connect 1 0 17 0;
#X connect 1 0 18 0;
#X connect 2 0 3 0;
#X connect 3 0 23 0;
#X connect 4 0 5 0;
#X connect 5 0 6 0;
#X connect 7 0 22 0;
#X connect 8 0 5 0;
#X connect 9 0 20 0;
#X connect 10 0 5 0;
#X connect 11 0 21 0;
#X connect 12 0 5 0;
#X connect 13 0 19 0;
#X connect 14 0 5 0;
#X connect 15 0 7 0;
#X connect 16 0 9 0;
#X connect 17 0 11 0;
#X connect 18 0 13 0;
#X connect 19 0 14 0;
#X connect 20 0 10 0;
#X connect 21 0 12 0;
#X connect 22 0 8 0;
#X connect 23 0 4 0;
