#N canvas 419 68 665 300 12;
#X obj 257 10 inlet;
#X obj 257 34 bng 19 250 50 0 empty empty empty 0 -10 0 12 #fcfcfc #000000 #000000;
#X obj 257 58 random 8;
#X floatatom 257 87 5 0 0 0 - - - 0;
#X obj 92 153 sel 0;
#X msg 92 177 64;
#X floatatom 265 261 5 0 0 0 - - - 0;
#X obj 265 284 mtof;
#X floatatom 265 308 5 0 0 0 - - - 0;
#X obj 265 331 outlet;
#X msg 164 177 65;
#X msg 240 179 67;
#X msg 309 180 69;
#X msg 375 181 71;
#X msg 443 179 72;
#X msg 521 177 74;
#X msg 587 177 76;
#X obj 164 153 sel 1;
#X obj 240 155 sel 2;
#X obj 309 156 sel 3;
#X obj 376 157 sel 4;
#X obj 443 155 sel 5;
#X obj 521 153 sel 6;
#X obj 587 153 sel 7;
#X connect 0 0 1 0;
#X connect 1 0 2 0;
#X connect 2 0 3 0;
#X connect 3 0 4 0;
#X connect 3 0 17 0;
#X connect 3 0 18 0;
#X connect 3 0 19 0;
#X connect 3 0 20 0;
#X connect 3 0 21 0;
#X connect 3 0 22 0;
#X connect 3 0 23 0;
#X connect 4 0 5 0;
#X connect 5 0 6 0;
#X connect 6 0 7 0;
#X connect 7 0 8 0;
#X connect 8 0 9 0;
#X connect 10 0 6 0;
#X connect 11 0 6 0;
#X connect 12 0 6 0;
#X connect 13 0 6 0;
#X connect 14 0 6 0;
#X connect 15 0 6 0;
#X connect 16 0 6 0;
#X connect 17 0 10 0;
#X connect 18 0 11 0;
#X connect 19 0 12 0;
#X connect 20 0 13 0;
#X connect 21 0 14 0;
#X connect 22 0 15 0;
#X connect 23 0 16 0;
