#N canvas 688 19 681 716 12;
#X obj 391 333 bng 19 250 50 0 empty empty empty 0 -10 0 12 #fcfcfc #000000 #000000;
#X obj 376 498 *~;
#X obj 376 540 output~;
#N canvas 834 0 523 716 additive_synth 0;
#X obj 226 302 osc~;
#X floatatom 133 152 5 0 0 0 - - - 0;
#X obj 226 339 *~ 0.75;
#X floatatom 226 266 5 0 0 0 - - - 0;
#X obj 332 302 osc~;
#X floatatom 332 266 5 0 0 0 - - - 0;
#X obj 439 304 osc~;
#X floatatom 439 268 5 0 0 0 - - - 0;
#X obj 439 341 *~ 0.35;
#X msg 133 112 440;
#X obj 134 431 *~ 0.25;
#X obj 226 229 * 3;
#X obj 332 229 * 5;
#X obj 439 231 * 7;
#X obj 332 339 *~ 0.55;
#X obj 133 296 osc~;
#X obj 133 474 outlet~;
#X obj 133 43 inlet;
#X connect 0 0 2 0;
#X connect 1 0 11 0;
#X connect 1 0 12 0;
#X connect 1 0 15 0;
#X connect 1 0 13 0;
#X connect 2 0 10 0;
#X connect 3 0 0 0;
#X connect 4 0 14 0;
#X connect 5 0 4 0;
#X connect 6 0 8 0;
#X connect 7 0 6 0;
#X connect 8 0 10 0;
#X connect 9 0 1 0;
#X connect 10 0 16 0;
#X connect 11 0 3 0;
#X connect 12 0 5 0;
#X connect 13 0 7 0;
#X connect 14 0 10 0;
#X connect 15 0 10 0;
#X connect 17 0 9 0;
#X restore 281 411 pd additive_synth;
#N canvas 577 103 450 300 adsr 0;
#X msg 86 75 1 1000;
#X obj 108 254 line~;
#X obj 201 73 delay 1000;
#X msg 201 139 0.5 1500;
#X obj 201 97 bng 19 250 50 0 empty empty empty 0 -10 0 12 #fcfcfc #000000 #000000;
#X obj 305 139 delay 3000;
#X msg 305 163 0 1000;
#X obj 107 302 outlet~;
#X obj 86 24 inlet;
#X obj 200 28 inlet;
#X connect 0 0 1 0;
#X connect 1 0 7 0;
#X connect 2 0 4 0;
#X connect 3 0 1 0;
#X connect 4 0 3 0;
#X connect 4 0 5 0;
#X connect 5 0 6 0;
#X connect 6 0 1 0;
#X connect 8 0 0 0;
#X connect 9 0 2 0;
#X restore 448 411 pd adsr;
#X connect 0 0 3 0;
#X connect 0 0 4 0;
#X connect 0 0 4 1;
#X connect 1 0 2 0;
#X connect 1 0 2 1;
#X connect 3 0 1 0;
#X connect 4 0 1 1;
